<svg id="Layer_1" data-name="Layer 1" xmlns="http://www.w3.org/2000/svg" viewBox="0 0 563.76 221.05"><defs><style>.cls-1{fill:#fafcfc;}.cls-2{fill:#211b56;}.cls-3{fill:#8fd4f4;}.cls-4{fill:#a7a3c5;}.cls-5{fill:#28a2db;}.cls-6{fill:#211c57;}.cls-7{fill:#27a3dc;}.cls-8{fill:#221c57;}.cls-9{fill:#211c56;}.cls-10{fill:#2aa3dc;}.cls-11{fill:#221d58;}.cls-12{fill:#27a4dc;}.cls-13{fill:#221c56;}.cls-14{fill:#221d57;}.cls-15{fill:#221d56;}.cls-16{fill:#e8fd00;}.cls-17{fill:#bac814;}.cls-18{fill:#c0d011;}.cls-19{fill:#a7df4c;}.cls-20{fill:#abe147;}.cls-21{fill:#c9d90e;}.cls-22{fill:#c6d60f;}</style></defs><title>logo_full</title><path class="cls-1" d="M443,99.61c0-5.12,0-10.24,0-15.36q0-12.23,0-24.46A4.63,4.63,0,0,1,448,55H478.2c3.16,0,6.32,0,9.48,0,.43-.57,1.07-.46,1.65-.47,3.24,0,6.48,0,9.72,0h45.71l2,0a3.11,3.11,0,0,1,3.09,2.2c.62,1.69,1.18,3.4,1.76,5.1,2.51,7.29,5.16,14.53,7.7,21.82a5,5,0,0,1-.65,5,4.42,4.42,0,0,1-2.29,1.65,10.51,10.51,0,0,1-4.38.45,17.43,17.43,0,0,0-2.39-.15H495.9c-2.83,0-2.9.07-2.9,2.89,0,2.32,0,4.64,0,7,0,1.41.37,1.74,1.79,1.82.64,0,1.28,0,1.92,0,17.28,0,34.55,0,51.83,0a4.68,4.68,0,0,1,4.71,3.14,5.27,5.27,0,0,1,0,3.63c-1.71,5-3.49,10-5.25,14.93-1.35,3.81-2.65,7.63-4,11.43-.85,2.38-1.59,3.06-4.13,2.95-10.31-.42-20.63-.12-30.94-.2-4.56,0-9.11,0-13.67,0-1.94,0-2.25.32-2.25,2.23q0,5.58,0,11.16c0,1.92.22,2.13,2.16,2.13h63c3.85,0,4.56.51,5.86,4.12v1c-1.11,6.1-3.79,11.68-5.67,17.53-1.15,3.53-2.41,7-3.69,10.52-1,2.81-1.19,2.95-4.25,2.95H448.28a5.72,5.72,0,0,1-3.72-1.08,5,5,0,0,1-2.06-4.22q0-41.28,0-82.55A4.45,4.45,0,0,1,443,99.61Z" transform="translate(-0.24 -6.23)"/><path class="cls-2" d="M14.2,144.24l-.06,1.08c-.23.58,0,1.21-.18,1.8l-.52,1c-.41.2-.88,0-1.28.17s.1.16.09.26c.44.29,1,.47,1.23,1a2.09,2.09,0,0,1,0,1.19c-.47,2.29-1,4.57-1.28,6.9a1.85,1.85,0,0,1-.69,1.53c-.45.32-.93,0-1.35.07.38,0,.82,0,1.1.4a1.71,1.71,0,0,1,.34,1.64c-.71,2.64-1.36,5.3-2,8a5,5,0,0,1-.5.91,2,2,0,0,1-1.43.07,45.89,45.89,0,0,0-6.2-.79,1.89,1.89,0,0,1-1.24-.69v-.48c.78-1.34.77-2.87,1-4.33a119.42,119.42,0,0,0,2.35-23.33,21,21,0,0,0-.2-2.62c-.09-.71-.37-1.49.17-2.17a4,4,0,0,1,2.45-.21c2.28.69,4.66.95,7,1.41.43.08.88.1,1.11.57l.28.44c.21.41,0,.88.19,1.29a1.27,1.27,0,0,0-.06.18s0,.05.06.08c-.23.58,0,1.22-.18,1.81l-.06,1.37C14.14,143.21,14.41,143.75,14.2,144.24Z" transform="translate(-0.24 -6.23)"/><path class="cls-2" d="M114.75,218.52a1.15,1.15,0,0,1,.47-1c1.92-1.64,3.81-3.31,5.75-4.93a2.53,2.53,0,0,1,1.82-.64c.73.14.28-.56.55-.76.14-.8.89-1.08,1.42-1.46,2-1.38,4.07-2.65,6.08-4a1.3,1.3,0,0,1,1.21-.15,1,1,0,0,1,.89.49c1.62,2.21,3.53,4.16,5.31,6.23a2.29,2.29,0,0,1,.63,1.61c-3.5,1.93-7,3.81-10.33,6.07s-6.31,4.44-9.28,6.91a1.43,1.43,0,0,0-.23.38H106.56c-.68-.91-.4-1.6.44-2.24,2.26-1.71,4-4,6.26-5.74.45-.34.77-.2,1.16-.15C115.22,219.3,114.7,218.76,114.75,218.52Z" transform="translate(-0.24 -6.23)"/><path class="cls-1" d="M392.64,90l-14.88,0a1.26,1.26,0,0,0-1.44,1.44q0,15.6,0,31.2c0,.48,0,1,0,1.44q0,29.88,0,59.76a5.2,5.2,0,0,1-5.32,5.31q-19.44-.09-38.88,0c-3.74,0-5.48-2.1-5.49-5.56q0-26.58,0-53.16c0-6.56-.19-13.13.06-19.68.23-6,.07-12,.18-18.07a11.69,11.69,0,0,0-.09-1.19c-.11-1.19-.83-1.5-2-1.5-6.55,0-13.11,0-19.67,0h-20.4a4.06,4.06,0,0,1-4.23-3.3,5.79,5.79,0,0,1,.39-3.66c2-5.46,4.08-10.9,6.09-16.36,1.18-3.19,2.26-6.41,3.4-9.61.58-1.61,1.35-2.11,3.14-2.11H409.12c2.25,0,2.69.3,3.43,2.43,2.25,6.46,4.48,12.92,6.75,19.37.88,2.51,1.88,5,2.73,7.49,1,2.83-1.5,5.51-3.93,5.76-2.77.28-5.53-.08-8.3,0C404.08,90.07,398.36,90,392.64,90Z" transform="translate(-0.24 -6.23)"/><path class="cls-1" d="M268.56,122.07c0,20.68,0,41.35,0,62a5.26,5.26,0,0,1-5.09,5q-19.68-.06-39.35,0c-3.47,0-5.06-2.13-5.28-5.18,0-.2,0-.4,0-.6q0-61.32,0-122.62c0-3.79,2.39-5.83,5.74-5.81q19.26.1,38.52,0a5.55,5.55,0,0,1,5.5,5.48C268.51,81,268.56,101.51,268.56,122.07Z" transform="translate(-0.24 -6.23)"/><path class="cls-3" d="M163.17,52c-.86-.5-.95.39-1.14.76-1.37,2.68-2.87,5.29-4.36,7.91-3.93,6.89-8.12,13.62-12.63,20.15a6.92,6.92,0,0,1-2.87,2.25c-5,2.37-9.91,5-14.77,7.74-3.7,2.06-7.29,4.29-10.81,6.62-.31.2-.6.75-1.13.36.27-1.14,0-2.32.18-3.46l.06-2.77c.27-1.07,0-2.17.18-3.23V83.51c-.17-1.61,0-3.22-.08-4.83a3.44,3.44,0,0,0-.1-1.28,15.92,15.92,0,0,0-.06-3c-.2-.58,0-1.21-.18-1.79L115.39,71c-.17-.41,0-.87-.17-1.28-.33-3.82.91-7.21,2.62-10.56,3-5.84,6.16-11.57,9.43-17.26,1.46-2.55,3-5,4.56-7.54a.63.63,0,0,0,.12-.65,1.09,1.09,0,0,1,.3-1.1c1.88-2.49,4-4.79,6-7.14a.81.81,0,0,1,.53-.26,1.85,1.85,0,0,1,.35,1.46,23.66,23.66,0,0,0-.17,6.67c.22.65-.07,1.34.18,2l.06,2.58c.23.9-.08,1.84.18,2.75l.06,1.33c.19.41,0,.87.18,1.28l.06.88c.19.4,0,.86.18,1.26l.06.9c.2.39-.05.85.18,1.24a44.67,44.67,0,0,0,.67,5.78c.07.65.28.67.81.44,3.16-1.4,6.33-2.76,9.49-4.17a133,133,0,0,0,15.1-8s.15,0,.22,0a1.41,1.41,0,0,1,.2,1.36,68.83,68.83,0,0,1-2.81,8.35A1,1,0,0,1,163.17,52Z" transform="translate(-0.24 -6.23)"/><path class="cls-4" d="M138.88,213.92a2.94,2.94,0,0,0-.72-1.06,67.36,67.36,0,0,1-6.11-7.27c-.94-2.58-2.75-4.66-4.08-7-2.37-4.19-4.78-8.34-7-12.61-1.18-2.28-2.34-4.57-3.57-6.82-1.4-2.56-2.52-5.18-2.19-8.19.26-.72,0-1.49.18-2.22l.06-2.07c.26-.82,0-1.67.18-2.49l.06-3a40.3,40.3,0,0,0,.1-4.53,4.38,4.38,0,0,1,.08-1.3v-6.5a47.14,47.14,0,0,1,.08-7.42,108.87,108.87,0,0,0,9.93,6.31c5.1,3,10.35,5.7,15.66,8.3a11,11,0,0,1,4.38,3.78q7.62,11.31,14.2,23.27a29.39,29.39,0,0,1,1.94,3.68c.21.55.65.48,1.07.53.56.21.68.75.86,1.22.94,2.44,1.79,4.92,2.57,7.42.18.58.51,1.2-.06,1.78a30.15,30.15,0,0,1-4.23-2.35q-6-3.28-12.27-6.1c-2.66-1.2-5.33-2.39-8-3.51-1-.41-1.22-.08-1.34.76a12.35,12.35,0,0,0-.26,2.85c-.22.39,0,.85-.18,1.24a14.21,14.21,0,0,0-.3,3.5c-.2.42,0,.88-.18,1.3l-.06,1.34c-.2.42,0,.88-.17,1.3l-.07,1.61c-.24.57,0,1.18-.18,1.75l-.06,2.06c-.25.74,0,1.52-.18,2.26l-.06,3a5.41,5.41,0,0,0,0,2.3C138.86,212,139.41,213,138.88,213.92Z" transform="translate(-0.24 -6.23)"/><path class="cls-4" d="M14.15,137.56a42.53,42.53,0,0,1-6.92-1.15,16,16,0,0,0-3.63-.62c3.47-2.14,7-4.23,10.38-6.43,4.27-2.75,8.34-5.78,12.36-8.89,1.05-.81,1.05-.94,0-1.73C19.22,113.42,12.08,108.17,4.21,104c-1.21-.64-1.27-1-.64-2.7a.66.66,0,0,1,.34.32c.65,1.3.65,1.3,2.11,1,2.09-.47,4.18-.93,6.3-1.2.63-.08,1.27-.24,1.73.4.81.5,1.68.13,2.52.17,1.45-.24,2.93.1,4.39-.18h9.2c1.46.27,2.94-.06,4.39.17l4.23.07c1,.26,2,0,3,.18l2.32.06c.65.24,1.35,0,2,.18l1.6.06c.41.2.87,0,1.28.18,2.9,1.09,5.25,3.1,7.82,4.72a219.76,219.76,0,0,0,20,11.54c.34.17.89.22.92.65s-.57.58-.93.76a216.88,216.88,0,0,0-25.24,15,8.24,8.24,0,0,1-3.06,1.24c-.41.17-.86,0-1.26.17l-1.62.06c-.65.22-1.34-.07-2,.18l-2.57.07c-1.05.21-2.14-.09-3.19.17l-5.21.06c-2.77.18-5.55.06-8.32.07-2.18,0-4.36.1-6.54-.06C16.56,137.39,15.32,137,14.15,137.56Z" transform="translate(-0.24 -6.23)"/><path class="cls-2" d="M138.82,25.24a1.58,1.58,0,0,1-.52,1c-2.23,2.39-4.37,4.86-6.35,7.46a2.12,2.12,0,0,1-1.52-.4l-6.74-4.62a.85.85,0,0,1-.46-.66c0-.68-.41-.79-.92-.73-1,.11-1.31-.79-1.89-1.22-1.91-1.39-3.68-3-5.51-4.48a1.24,1.24,0,0,1-.4-.94c.08-.65-.33-.36-.61-.32a36.51,36.51,0,0,1-5.12-4.59c-.66-.62-1.35-1.21-2-1.8s-.68-1.24-.08-2c1.38-1.7,2.73-3.44,4-5.2.7-.93,1.34-.55,2,0,1.85,1.58,3.64,3.22,5.52,4.75A117.88,117.88,0,0,0,137,24.38,7.1,7.1,0,0,1,138.82,25.24Z" transform="translate(-0.24 -6.23)"/><path class="cls-5" d="M163.17,52c.65-2.72,2-5.2,2.66-7.92l.6-2.44c.42-.27.76-.06,1.1.17,8.65,5.8,18.24,9.54,28,12.91,1.72.59,1.72.58,1,2.3s-1.46,3.5-2,5.31a1.55,1.55,0,0,1-2.15,1.2c-2.62-.74-5.2-1.62-7.82-2.34a1.09,1.09,0,0,1-.94-1.43c-.09-.19-.21-.06-.32,0a1.66,1.66,0,0,1-2,.34L174,57.34a1.46,1.46,0,0,1-.75-.7c-.16-.21-.07-.46-.13-.67a.14.14,0,0,0-.14-.16l-.24.09a1.93,1.93,0,0,1-2.15,0c-2.37-1.12-4.73-2.28-7.08-3.43C163.37,52.38,163.29,52.16,163.17,52Z" transform="translate(-0.24 -6.23)"/><path class="cls-2" d="M166.51,197.66a77.18,77.18,0,0,0-3-8.93,5.16,5.16,0,0,1-.41-1.49c2.47-1.76,5.31-2.78,8-4.08a1.94,1.94,0,0,1,1.6,0c.26.16.48.26.41-.22a.65.65,0,0,1,.1-.54c1.93-1.12,4.13-1.54,6.17-2.4a6.48,6.48,0,0,1,2.4-.85c1.11,0,2.17.32,2.77-1,2.74-.82,5.48-1.66,8.23-2.46a1.14,1.14,0,0,1,1.51.8c.71,2.18,1.66,4.26,2.51,6.38.42,1-.46,1.35-1.2,1.62-2.26.82-4.54,1.6-6.8,2.42-2.92,1.05-5.75,2.32-8.59,3.58a87,87,0,0,0-13,7.06A.68.68,0,0,1,166.51,197.66Z" transform="translate(-0.24 -6.23)"/><path class="cls-2" d="M14.05,101.79c-2.92,0-5.71.87-8.54,1.43-1.86.38-1.86.39-1.89-1.45a4,4,0,0,0-.05-.47,115.53,115.53,0,0,0-2-24.55c-.31-1.76-.64-3.53-1-5.29-.19-.93.09-1.4,1.08-1.52,2.17-.25,4.34-.57,6.5-.87.86-.12,1.27.23,1.47,1.1.55,2.5,1.17,5,1.79,7.47.44,1.79.46,1.78-1.33,2.31-.15.13-.17.24.06.3s.77-.06,1.14.11a2.28,2.28,0,0,1,1,1.78c.36,2.33.77,4.65,1.21,7a1.38,1.38,0,0,1-.75,1.65c-.21.13-.46,0-.68.13a3,3,0,0,0-.31.15c.07.08.21,0,.28.12,1.27.08,2.05.6,1.94,2a5.5,5.5,0,0,0,.25,1.36c.2.49,0,1,.18,1.51l.06,1.37a15,15,0,0,1-.07,4.07Z" transform="translate(-0.24 -6.23)"/><path class="cls-5" d="M172.05,59c.31-.3.32-.81.76-1A1.93,1.93,0,0,1,174,58c2.2.83,4.42,1.63,6.61,2.48.71.28,1.6.38,1.78,1.37a16.23,16.23,0,0,1-2.9,6.74c-1.15,1.38-2.49.42-3.66.15-1.88-.44-3.67-1.29-5.55-1.78a1.19,1.19,0,0,1-1.05-1.41,9.47,9.47,0,0,1,.76-2.12c-.3.56-.4,1.32-1,1.81-.56.89-1.18,1-2.24.61-2.31-.93-4.67-1.71-6.92-2.8-.85-.42-1.08-.87-.62-1.82,1.13-2.37,2.16-4.79,3.16-7.22.37-.9.84-.86,1.56-.51,2.35,1.13,4.69,2.26,7.07,3.32,1,.42,1,1.08.83,1.91-.14.24,0,.55-.16.73A2.2,2.2,0,0,1,172.05,59Z" transform="translate(-0.24 -6.23)"/><path class="cls-2" d="M172.06,181.25a1.17,1.17,0,0,1-.8.93c-2.53,1.19-5,2.41-7.56,3.63-.59.29-.92.19-1.21-.44-1.23-2.62-2.19-5.36-3.55-7.93-.21-.39-.05-.76.49-1a54.93,54.93,0,0,1,7.84-3.07,1.23,1.23,0,0,1,1.66.66,1.65,1.65,0,0,1,.66.65A20.72,20.72,0,0,1,172.06,181.25Z" transform="translate(-0.24 -6.23)"/><path class="cls-2" d="M122,29.07a.68.68,0,0,1,.86,0q3.61,2.49,7.26,4.93c.57.39.53.81.16,1.3-1.68,2.25-3.35,4.51-5,6.76a1,1,0,0,1-1.45.17,37.09,37.09,0,0,1-6.51-5.35,1.27,1.27,0,0,1-.33-1,5,5,0,0,1,1.32-2.46,28.76,28.76,0,0,1,3-3.82A1.48,1.48,0,0,1,122,29.07Z" transform="translate(-0.24 -6.23)"/><path class="cls-2" d="M116.89,203.25c0-.81.59-1.21,1.1-1.69a45.61,45.61,0,0,1,5.41-4.28c.88-.61,1.44-.65,2.1.31,1.49,2.15,3.05,4.24,4.65,6.31.49.64.46,1-.18,1.43q-3.42,2.34-6.81,4.74c-.38.27-.76.13-1.14.13-.87-.22-1.21-1-1.75-1.6a8.07,8.07,0,0,0-.58-.73,6.75,6.75,0,0,1-.66-.65,7,7,0,0,0-.56-.95C117.91,205.28,116.94,204.51,116.89,203.25Z" transform="translate(-0.24 -6.23)"/><path class="cls-6" d="M14.84,91.21c.46-.71,1.24-.55,1.9-.7s1.32-.2,2-.3c.41-.21.88,0,1.29-.19L21.13,90c.41-.17.88,0,1.29-.17,1.71,0,1.65,0,2.09,1.75.48,1.87.58,3.8,1,5.67.17.43,0,.9.18,1.32-.08,1.36-.41,1.62-2.05,1.78-2.28.22-4.58.38-6.84.77-1.14.2-1.39-.16-1.38-1.12,0-.28-.05-.56-.07-.83-.22-.74.07-1.52-.18-2.26l-.06-1.34c-.18-.43,0-.9-.18-1.33l-.06-1.07A4.73,4.73,0,0,1,14.84,91.21Z" transform="translate(-0.24 -6.23)"/><path class="cls-2" d="M20.4,138.68l.9.06c.4.22.85,0,1.25.17a6.68,6.68,0,0,0,1.5.27c1.19-.05,1.6.57,1.61,1.64-.22.39,0,.85-.18,1.26-.33,1.92-.71,3.84-1,5.78-.15,1.14-.67,1.7-1.83,1.64-.49-.22-1,0-1.55-.18l-.9-.06a1.74,1.74,0,0,0-1.25,0,1.93,1.93,0,0,1-1.94-.4c-2.4-.33-2.39-.33-2.13-2.81,0-.31,0-.63,0-1,.23-.58,0-1.21.18-1.79l.06-1.55c.21-.5,0-1.06.17-1.56a2,2,0,0,0,0-.24c.15-1.84.15-1.82,2-1.5a12.74,12.74,0,0,0,1.75.07C19.53,138.72,20,138.49,20.4,138.68Z" transform="translate(-0.24 -6.23)"/><path class="cls-2" d="M119.26,207.11l.73.51c-.15.45.25.63.44.92.44.73,1.23,1.28,1.22,2.26-.21.76-.92,1-1.45,1.51-1.82,1.55-3.66,3.07-5.48,4.62-.66.56-1.24.67-1.72-.2a8.37,8.37,0,0,1-2.47-2.79c-.51-.72-1.25-1.35-1.29-2.34-.48-.51-.74-1.17-.24-1.7a54.09,54.09,0,0,1,6.42-6c.44-.34.77-.19,1.17-.16,1,.55,1.38,1.61,2,2.43C118.84,206.51,119.07,206.8,119.26,207.11Z" transform="translate(-0.24 -6.23)"/><path class="cls-2" d="M112.08,32.42l-2.82-2.74a1.25,1.25,0,0,1,0-2c.38-1.55,1.53-2.62,2.44-3.83.36-.48.63-1.12,1.33-1.28.53-.95,1.15-.74,1.83-.17,2.07,1.75,4.15,3.48,6.21,5.23.33.28.72.54.6,1.08-.1.91-.85,1.41-1.33,2.08-1,1.4-2,2.76-3,4.13-.19.26-.33.55-.69.6-.39.34-.68.28-1.12,0a27.65,27.65,0,0,1-2.58-2.38A.82.82,0,0,1,112.08,32.42Z" transform="translate(-0.24 -6.23)"/><path class="cls-2" d="M18.5,160.31c-.67-.59-1.56-.36-2.3-.45a13.57,13.57,0,0,0-2.42-.35c-.62,0-1.17-.43-.91-1.44.5-2,.8-4,1.12-6,.11-.67.31-1.34.37-2,.09-1,.64-1.12,1.43-1,1,.23,2.18-.18,3.17.42a9.8,9.8,0,0,0,3.05.3c.4.23.87,0,1.27.2l.43.28a1.72,1.72,0,0,1,.08,1.42c-.5,2.09-1,4.19-1.5,6.28s-.74,2.22-2.85,2.28c-.32,0-.63,0-.94.06Z" transform="translate(-0.24 -6.23)"/><path class="cls-2" d="M182.37,177.44c-.05.63-.57.85-1,1-2.39.9-4.79,1.81-7.22,2.61-.55.19-1.46.92-1.83-.36-1.08-1.57-1.49-3.46-2.37-5.13a4.67,4.67,0,0,1-.72-2.08c-.35-.41-.18-.68.26-.84a78.36,78.36,0,0,1,8.89-2.67.77.77,0,0,1,1,.5c.21.46.49.89.74,1.33.81.29.82,1.11,1.11,1.73A9.49,9.49,0,0,1,182.37,177.44Z" transform="translate(-0.24 -6.23)"/><path class="cls-2" d="M19.57,89.74l-.85.05c-.4.21-.87,0-1.28.19l-.88.06a4.29,4.29,0,0,1-1.92,0c-.77-1.25-.54-2.73-.89-4.08-.4-1.52-.41-3.14-.86-4.63-.34-1.16.3-1.37,1-1.5,1.59-.28,3.21-.44,4.81-.65.47-.21,1,.08,1.46-.19,1.17-.14,1.64.63,1.88,1.56.52,2,1,4.12,1.46,6.17.07.31.18.6.27.9a2.1,2.1,0,0,1,0,1.19c-.79,1-2,.54-2.94.77C20.46,89.74,20,89.54,19.57,89.74Z" transform="translate(-0.24 -6.23)"/><path class="cls-7" d="M167.3,68.16c-.94,1.86-1.7,3.81-2.81,5.59a1.8,1.8,0,0,1-2.32.91c-2-.45-3.84-1.11-5.74-1.72a5.09,5.09,0,0,1-1.37-.6c-.35-.23-.66-.51-.36-1.09,1.14-2.22,2.24-4.46,3.33-6.71.3-.63.71-.94,1.4-.7A42.84,42.84,0,0,1,167.31,67,1.68,1.68,0,0,1,167.3,68.16Z" transform="translate(-0.24 -6.23)"/><path class="cls-2" d="M111.69,194.93a1.87,1.87,0,0,1,.43-1.34,36.42,36.42,0,0,1,5.51-5,.94.94,0,0,1,1.49.23,63.83,63.83,0,0,1,4.23,6.32.83.83,0,0,1-.14,1.23c-1.92,1.74-3.92,3.37-6,4.92-.49.37-1.08.57-1.56-.08a36.85,36.85,0,0,1-3.83-5.75C111.74,195.26,111.63,195.13,111.69,194.93Z" transform="translate(-0.24 -6.23)"/><path class="cls-2" d="M116.41,37.69a1.11,1.11,0,0,1,.87.36c1.93,1.47,3.82,3,5.64,4.58.73.63.69,1.15.22,1.92-1.12,1.86-2.37,3.65-3.62,5.43-.81,1.15-1.28,1.16-2.4.3a38,38,0,0,1-4.55-4.14c-1.09-1.16-1.23-1.75-.43-3a43.93,43.93,0,0,1,3.42-4.91C115.79,37.94,116,37.62,116.41,37.69Z" transform="translate(-0.24 -6.23)"/><path class="cls-2" d="M167.31,172c.05.26-.28.54-.64.69-2.48,1-5,2-7.47,2.93-.65.24-1-.43-1.24-.9-1-2.27-2.27-4.36-3.17-6.65-.27-.69-.12-1,.5-1.25a41.37,41.37,0,0,1,7.56-2.26,1.12,1.12,0,0,1,1.32.48,32.36,32.36,0,0,1,3.07,6.25A4.76,4.76,0,0,1,167.31,172Z" transform="translate(-0.24 -6.23)"/><path class="cls-2" d="M103,23.2c-.57-.7-1.25-1.3-1.82-2a1,1,0,0,1,0-1.45c1.38-1.61,2.58-3.36,3.83-5.07.41-.57.79-.66,1.35-.13,2.08,2,4.17,3.95,6.3,5.88.7.63.51,1.18.1,1.81a23.89,23.89,0,0,1-3.82,5.12c-.65.76-1.28.89-2,0-.57-.69-1.24-1.29-1.87-1.93A3.76,3.76,0,0,1,103,23.2Z" transform="translate(-0.24 -6.23)"/><path class="cls-2" d="M104.58,214.31c.75-.77,1.56-1.5,2.25-2.32s1.37-1,2.1-.06a4.23,4.23,0,0,1,1.46,1.68c.77,1.15,1.86,2.08,2.38,3.41a1.38,1.38,0,0,1-.33,2c-1.93,1.72-3.8,3.5-5.68,5.28-1.13,1.07-1.14,1.07-2-.16-1-1.39-2-2.78-3.1-4.11s-1.09-1.42.06-2.64c.27-.29.56-.57.84-.85A3.8,3.8,0,0,1,104.58,214.31Z" transform="translate(-0.24 -6.23)"/><path class="cls-5" d="M182.62,62.4c.18-.91.9-.84,1.49-.68,2.8.77,5.58,1.59,8.37,2.42a.72.72,0,0,1,.47,1.12c-.88,2-1.78,4-2.58,6.08-.43,1.09-1.31.62-1.94.59a15.56,15.56,0,0,1-2.88-.66c-.52-.34-1.32.38-1.72-.44a33.31,33.31,0,0,1-3.52-1c-.6-.16-.45-.54-.51-.9a16.42,16.42,0,0,1,1.5-4A7.28,7.28,0,0,1,182.62,62.4Z" transform="translate(-0.24 -6.23)"/><path class="cls-2" d="M180.25,171.33a2.77,2.77,0,0,0-.18-.43c-.54-.94-.18-1.43.78-1.65l8.19-1.91a.94.94,0,0,1,1.28.64c.77,1.9,1.57,3.8,2.44,5.65.42.89.19,1.34-.68,1.59-2.62.78-5.23,1.58-7.86,2.3-.58.16-1.41.41-1.61-.64A25.39,25.39,0,0,1,180.25,171.33Z" transform="translate(-0.24 -6.23)"/><path class="cls-2" d="M11.76,170.44c-1.16.06-1.66-.42-1.37-1.61.68-2.76,1.34-5.53,2-8.29a2.16,2.16,0,0,1,.3-.49,3.67,3.67,0,0,1,1.68,0l.67.06c.39.23.85,0,1.25.18l.85.06c.42.2.89,0,1.31.18s.93.2,1.4.27c1.44.23,1.57.37,1.19,1.7-.68,2.42-1.42,4.83-2.11,7.25-.27.94-.74,1.58-1.85,1.36-.4-.22-.87,0-1.27-.18l-2.81-.3C12.63,170.4,12.17,170.63,11.76,170.44Z" transform="translate(-0.24 -6.23)"/><path class="cls-6" d="M30.24,139.88l1.56.06c.58.23,1.21,0,1.8.18,2.4.25,2.49.26,2.13,2.74a22.67,22.67,0,0,1-1.9,6.87,22.26,22.26,0,0,1-5,.07,9.34,9.34,0,0,0-2.26-.29c-1.07,0-1.25-.52-1.32-1.33.2-.41,0-.88.18-1.3a56.92,56.92,0,0,1,1.09-6.35c.23-1.28,1.28-.63,2-.83C29,139.93,29.66,139.67,30.24,139.88Z" transform="translate(-0.24 -6.23)"/><path class="cls-2" d="M12.72,79.22c-.78-1.24-.74-2.7-1.12-4s-.81-2.94-1.16-4.42-.23-1.64,1.32-1.91c.4-.19.87,0,1.26-.18a19.83,19.83,0,0,0,4-.43c.94-.17,1.55.07,1.83,1,.81,2.66,1.66,5.3,2.29,8a1,1,0,0,1-.5,1.26c-.42.2-.89,0-1.3.19l-1.1.07c-.4.18-.86,0-1.26.17l-2.82.3A2.52,2.52,0,0,1,12.72,79.22Z" transform="translate(-0.24 -6.23)"/><path class="cls-6" d="M32.27,99.34l-1.56.07a12.94,12.94,0,0,1-3.11,0C26,98.82,26.29,97.31,26,96.11c-.31-1.39-.43-2.83-.72-4.23s0-1.87,1.39-2.08l2.12-.32c.74-.23,1.52.07,2.26-.18,3,.28,3,.27,3.81,3.33a28.56,28.56,0,0,1,.92,4.12c.25,2.16.31,2.16-1.95,2.41C33.33,99.35,32.78,99.13,32.27,99.34Z" transform="translate(-0.24 -6.23)"/><path class="cls-2" d="M112.54,33.42c.71.8,1.38,1.64,2.14,2.4a1.1,1.1,0,0,1,.14,1.57c-1.21,2-2.6,3.88-3.95,5.79-.28.4-.48.52-.93.17a40.74,40.74,0,0,1-5.85-6.18,1.13,1.13,0,0,1-.13-1.46,58.35,58.35,0,0,1,3.55-5.26c.59-.82,1.18-.37,1.73,0a21,21,0,0,0,2.52,2.18A.85.85,0,0,1,112.54,33.42Z" transform="translate(-0.24 -6.23)"/><path class="cls-5" d="M174.06,77.57c-2.81-.52-5.32-1-7.78-1.76-1-.27-1.22-1-.6-2.2.91-1.68,1.41-3.55,2.56-5.13.51-.7.88-1.07,1.79-.82a68.55,68.55,0,0,1,7.26,2.14c.82.33.93.73.65,1.44a45,45,0,0,1-2.56,5.33C175.08,77.12,174.76,78,174.06,77.57Z" transform="translate(-0.24 -6.23)"/><path class="cls-2" d="M110.1,196a1.56,1.56,0,0,1,1.08.58,58.28,58.28,0,0,1,3.72,5.5c.23.38.4.73,0,1.17a50.93,50.93,0,0,1-5.84,5.63c-.65.53-1,.56-1.61-.2a42.77,42.77,0,0,1-3.51-5.14,1,1,0,0,1,0-1.26,46.68,46.68,0,0,1,5.28-5.79A4.06,4.06,0,0,1,110.1,196Z" transform="translate(-0.24 -6.23)"/><path class="cls-2" d="M165.42,164.57c0-.47.12-.72.68-.9,2.53-.8,5.14-1.28,7.73-1.83a1.27,1.27,0,0,1,1.48.74,39.45,39.45,0,0,1,2.64,5.67c.22.65.11.92-.6,1.21-2.5,1-5.16,1.51-7.72,2.32a.77.77,0,0,1-1-.42,46.74,46.74,0,0,1-3.26-6.43A.89.89,0,0,1,165.42,164.57Z" transform="translate(-0.24 -6.23)"/><path class="cls-8" d="M29,150.68l1.33.06c.42.2.89,0,1.31.19,2,.47,1.9.44,1.42,2.34s-1,3.56-1.55,5.32c-.69,2.13-1.06,2.34-3.24,2.15a3.81,3.81,0,0,0-.59,0c-.5-.22-1,0-1.56-.18a22.25,22.25,0,0,1-2.66-.34c-.65-.25-1-.35-.78-1.25.55-2.16.86-4.36,1.56-6.49.61-1.89.52-1.92,2.5-2C27.52,150.75,28.3,150.46,29,150.68Z" transform="translate(-0.24 -6.23)"/><path class="cls-6" d="M29.21,88.54l-1.37.06c-.5.19-1,0-1.53.18-1.18.17-1.72-.53-2-1.52-.61-2.41-1.18-4.84-1.76-7.26-.14-.61.35-.77.76-.87.85-.19,1.72-.31,2.59-.46.41-.16.88,0,1.3-.17a.86.86,0,0,0,.23,0c4.08,0,3-.5,4.65,3.7a32.83,32.83,0,0,1,1,4c.43,1.74.35,1.86-1.46,2l-.71.09C30.39,88.58,29.77,88.3,29.21,88.54Z" transform="translate(-0.24 -6.23)"/><path class="cls-5" d="M156.48,83.31a24.12,24.12,0,0,1-5.39-1.38c-.82-.31-1-.76-.77-1.4a19.16,19.16,0,0,1,3.77-6.66,2,2,0,0,1,1.19,0c1.93.64,4,.91,5.86,1.71,1.38.58,1.6.9,1,2.21a30.06,30.06,0,0,1-2.38,4.48,2.35,2.35,0,0,1-2,1.21C157.35,83.28,156.88,83.52,156.48,83.31Z" transform="translate(-0.24 -6.23)"/><path class="cls-6" d="M106.67,53c-.22-.94.53-1.53.88-2.23a18.45,18.45,0,0,1,2.36-3.64,1.09,1.09,0,0,1,1.65-.23A29,29,0,0,1,116.88,52a.91.91,0,0,1,.05,1.09,32.18,32.18,0,0,1-3.43,5.8,1.16,1.16,0,0,1-1.84.25,25.12,25.12,0,0,1-4.92-5.37C106.53,53.53,106.72,53.28,106.67,53Z" transform="translate(-0.24 -6.23)"/><path class="cls-2" d="M106.61,186.22a2.3,2.3,0,0,1,.19-.76,18.94,18.94,0,0,1,5-5.43,1.1,1.1,0,0,1,1.7.35,36,36,0,0,1,3.36,5.56,1.25,1.25,0,0,1-.19,1.52,37,37,0,0,1-5,4.79,1.15,1.15,0,0,1-1.78-.13,30.88,30.88,0,0,1-3.21-5.16A2.6,2.6,0,0,1,106.61,186.22Z" transform="translate(-0.24 -6.23)"/><path class="cls-5" d="M184.81,71.48c1.13.34,2.25.69,3.4,1,.75.19.93.59.67,1.3-.69,1.82-1.59,3.52-2.45,5.25-.68,1.36-1.91.76-2.8.58-1.88-.4-3.81-.62-5.66-1.2-1.63-.5-2-.9-1.25-2.36a33.32,33.32,0,0,1,2.14-4.42c.48-.68.86-1.12,1.79-.87a20.13,20.13,0,0,0,2.59.31C183.76,71.22,184.38,71,184.81,71.48Z" transform="translate(-0.24 -6.23)"/><path class="cls-2" d="M158,155.79a2.66,2.66,0,0,1,1.91,1.44,35,35,0,0,1,2.36,4.65c.41,1-.08,1.36-.78,1.64a26.85,26.85,0,0,1-4.3,1.36c-3.24.69-3.22.7-5-2.08a21.44,21.44,0,0,1-1.78-3.67c-.4-1,0-1.56.91-1.87a33.07,33.07,0,0,1,5.39-1.3C157.14,155.78,157.61,156,158,155.79Z" transform="translate(-0.24 -6.23)"/><path class="cls-2" d="M104.85,25.76c.44,1,1.34,1.54,1.93,2.38.31.46.45.78.15,1.27a36.47,36.47,0,0,1-3.74,5.33c-.43.49-.74.67-1.3.09a78.16,78.16,0,0,1-5.2-6,1.49,1.49,0,0,1-.1-1.91A47.56,47.56,0,0,1,99.8,22.3a.84.84,0,0,1,1.41-.13c.5.44,1,.9,1.49,1.36A4.74,4.74,0,0,1,104.85,25.76Z" transform="translate(-0.24 -6.23)"/><path class="cls-6" d="M102.2,216.22c-2.31,2-1.86,1.27-3.34-.52-.86-1-1.5-2.28-2.28-3.4a1.34,1.34,0,0,1,.06-1.81,62.61,62.61,0,0,1,5.12-5.92c.59-.57.93-.61,1.49,0a32.28,32.28,0,0,1,3.59,5.15,1.2,1.2,0,0,1-.19,1.5,22.94,22.94,0,0,0-2.28,2.75A4.57,4.57,0,0,1,102.2,216.22Z" transform="translate(-0.24 -6.23)"/><path class="cls-8" d="M23.28,171.4c-1-.1-1.93-.19-2.9-.31-.63-.07-1.09-.46-.91-1.09a68.27,68.27,0,0,1,2.46-7.87,1.16,1.16,0,0,1,1.33-.81,54.53,54.53,0,0,1,6.12.67c.66.1.89.28.69,1a78,78,0,0,1-2.57,7.6c-.5,1.29-1.56.79-2.41,1C24.5,171.35,23.87,171.61,23.28,171.4Z" transform="translate(-0.24 -6.23)"/><path class="cls-6" d="M24.85,67.7c2.37,0,2.37,0,3.17,2.32.71,2,1.52,4,2,6.16.18.74,0,1-.69,1.14A31.44,31.44,0,0,1,22.8,78c-.55,0-.64-.33-.79-.69a41.5,41.5,0,0,1-2.24-7.07c-.43-1.72-.37-1.77,1.39-2l2.36-.32C24,67.71,24.42,67.89,24.85,67.7Z" transform="translate(-0.24 -6.23)"/><path class="cls-9" d="M42.59,98.62H41.14c-.9-.26-1.83,0-2.73-.17-1.08-.16-.9-1.14-1.2-1.81a23.3,23.3,0,0,1-1.4-5.83c-.17-1,.34-1.32,1.18-1.42l1.42-.16c.42-.16.9,0,1.32-.17,4.31.12,5.34,1.07,6.1,5.57.12.69.26,1.38.4,2.07.26,1.22,0,1.6-1.37,1.64-.31,0-.63.07-.94.1C43.49,98.62,43,98.43,42.59,98.62Z" transform="translate(-0.24 -6.23)"/><path class="cls-6" d="M180.39,168.66c-.65.1-1-.15-1.3-.74a56.55,56.55,0,0,1-2.56-5.25c-.31-.69-.32-1.39.81-1.63,2.37-.5,4.74-1,7.13-1.39a1.77,1.77,0,0,1,2.25,1.17c.62,1.5,1.36,2.94,2,4.4.4.86.24,1.35-.77,1.65C185.48,167.61,182.92,168.09,180.39,168.66Z" transform="translate(-0.24 -6.23)"/><path class="cls-8" d="M41.78,140.65h.62c.57.24,1.19,0,1.76.18l.11,0c2.13.25,2.13.25,1.81,2.35a21.31,21.31,0,0,1-1.64,5.38,2.13,2.13,0,0,1-1.73,1.45,23.05,23.05,0,0,1-4.07,0c-.35,0-.71-.09-1.06-.11-1.72-.07-2.1-.41-1.78-2,.4-2,.91-3.93,1.48-5.87.14-.49.38-1.16,1.13-1.21C39.52,140.6,40.67,141,41.78,140.65Z" transform="translate(-0.24 -6.23)"/><path class="cls-2" d="M99.33,43.44c.28-1.45,1.34-2.43,2.11-3.59.21-.33.48-.62.71-.94a1,1,0,0,1,1.72-.17,35.12,35.12,0,0,1,4.82,5.3,1.6,1.6,0,0,1,.12,1.58,20.24,20.24,0,0,1-3.2,5.11c-.34.46-.84.73-1.35.28A20.53,20.53,0,0,1,99.4,45.1a1.39,1.39,0,0,1-.07-.46A1.77,1.77,0,0,1,99.33,43.44Z" transform="translate(-0.24 -6.23)"/><path class="cls-7" d="M166.56,77c1.87.42,3.75.82,5.62,1.27,1.27.3,1.53.84,1,2a14.63,14.63,0,0,1-3,5.14,8,8,0,0,1-2.63,0,30.41,30.41,0,0,1-5.09-1c-1-.25-1.32-.81-1.06-1.56a17.06,17.06,0,0,1,3.29-5.8.63.63,0,0,1,.22-.09A3.77,3.77,0,0,1,166.56,77Z" transform="translate(-0.24 -6.23)"/><path class="cls-6" d="M99.44,195.26a5.68,5.68,0,0,1,1.84-4c.89-1,1.91-1.93,2.84-2.92.42-.44.82-.48,1.21-.05a19.89,19.89,0,0,1,3.59,5.67,1.52,1.52,0,0,1-.36,1.44,34.82,34.82,0,0,1-4.73,5.2,1,1,0,0,1-1.55,0,19.42,19.42,0,0,1-2.79-4.2C99.28,195.89,99.66,195.53,99.44,195.26Z" transform="translate(-0.24 -6.23)"/><path class="cls-6" d="M170.15,153.88a13.3,13.3,0,0,1,3.27,5.91c.24.77-.63,1-1.23,1.18a34.65,34.65,0,0,1-6.11,1.31,2,2,0,0,1-1.19,0c-.72-.23-.9-.94-1.24-1.48a19.76,19.76,0,0,1-2.24-4.48c-.23-.7-.09-1.11.77-1.36a46.86,46.86,0,0,1,5.58-1.16A5.09,5.09,0,0,1,170.15,153.88Z" transform="translate(-0.24 -6.23)"/><path class="cls-8" d="M40.56,151.64c3.1.66,2.58,0,1.88,2.92A30.15,30.15,0,0,1,41,158.8c-.78,1.91-1.67,2.4-3.67,2.2a21.22,21.22,0,0,1-3.27-.22c-1.67-.4-1.65-.28-1.38-1.92a27.28,27.28,0,0,1,2-6.24c.21-.5.45-.91,1-1A30.77,30.77,0,0,1,40.56,151.64Z" transform="translate(-0.24 -6.23)"/><path class="cls-8" d="M36.48,87.64a2.51,2.51,0,0,1-2.18-1.85,42.52,42.52,0,0,1-1.88-6.13c-.12-.48.06-.82.65-.93a17.23,17.23,0,0,1,6.4-.24,1.55,1.55,0,0,1,1,.93,35.16,35.16,0,0,1,2.44,6.9c.25,1-.53,1-1.09,1.22a5.49,5.49,0,0,1-1.29.1A21.39,21.39,0,0,1,36.48,87.64Z" transform="translate(-0.24 -6.23)"/><path class="cls-7" d="M151.59,92.1a18.1,18.1,0,0,1-5.36-.91,1.22,1.22,0,0,1-1-1.45c.2-2.18,2.86-5.43,4.95-5.86,2.35-.48,4.45.4,6.47,1.44.58.3.41,1,.24,1.4a12.92,12.92,0,0,1-3.07,4.87C153.16,92.26,152.38,92.12,151.59,92.1Z" transform="translate(-0.24 -6.23)"/><path class="cls-7" d="M179.72,87.27a21.91,21.91,0,0,1-6.27-1c-.67-.15-1.07-.51-.73-1.47a24.93,24.93,0,0,1,2.45-4.73,1.38,1.38,0,0,1,1.28-.67A29.59,29.59,0,0,1,184,80.69.88.88,0,0,1,184.7,82a25.94,25.94,0,0,1-1.52,3.46C182.38,86.84,181.35,87.75,179.72,87.27Z" transform="translate(-0.24 -6.23)"/><path class="cls-6" d="M101.32,36.59a8.56,8.56,0,0,1-1.23,2.71A19.83,19.83,0,0,1,98,42c-.42.42-.84.56-1.31,0a47.28,47.28,0,0,1-4.55-5.71,1.87,1.87,0,0,1-.18-2,12.37,12.37,0,0,1,2.93-4.24c.42-.33.75-.46,1.13-.16a24.46,24.46,0,0,1,5.25,6.25A1,1,0,0,1,101.32,36.59Z" transform="translate(-0.24 -6.23)"/><path class="cls-6" d="M110.93,62.63A18.69,18.69,0,0,1,108,67.88c-.55.66-.92.86-1.69.27a17.07,17.07,0,0,1-4.3-5.4,2.27,2.27,0,0,1,.16-2.09,15.38,15.38,0,0,1,2.42-4.24c.54-.67,1.09-.63,1.74-.13a21.78,21.78,0,0,1,4.57,5.15A1.87,1.87,0,0,1,110.93,62.63Z" transform="translate(-0.24 -6.23)"/><path class="cls-6" d="M110.85,176.76a4.6,4.6,0,0,1-1.14,2.8,24.39,24.39,0,0,1-3.43,3.46,1,1,0,0,1-1.65-.14,14.75,14.75,0,0,1-2.83-5.42,1,1,0,0,1,.07-.8,20.1,20.1,0,0,1,4.1-5.29c.91-.78,1.56-.7,2.21.31.93,1.45,2.11,2.76,2.53,4.5C110.77,176.41,110.82,176.64,110.85,176.76Z" transform="translate(-0.24 -6.23)"/><path class="cls-2" d="M49.44,150c-.31,0-.63-.09-.94-.1-1.94,0-2.26-.29-1.88-2.14a22.5,22.5,0,0,1,1.27-4.25A4.16,4.16,0,0,1,52,140.94c.56,0,1.11,0,1.67,0,.42.2.9,0,1.33.19,2,.57,2.18.81,1.57,2.8A26.93,26.93,0,0,1,55,147.72,3.55,3.55,0,0,1,51.6,150,6.27,6.27,0,0,1,49.44,150Z" transform="translate(-0.24 -6.23)"/><path class="cls-2" d="M91.9,203.52a28.79,28.79,0,0,1,4.51-6,1.12,1.12,0,0,1,1.91.07,16.93,16.93,0,0,1,2.77,4.4,1.67,1.67,0,0,1-.19,1.77,29.56,29.56,0,0,1-4.64,5.41c-.57.51-.93.59-1.53,0a15.48,15.48,0,0,1-2.84-4.41A1.77,1.77,0,0,1,91.9,203.52Z" transform="translate(-0.24 -6.23)"/><path class="cls-6" d="M29,169.68a46,46,0,0,1,1.68-5.35c.59-1.82,2.12-2,3.61-2a14.15,14.15,0,0,1,4.56.66,1.34,1.34,0,0,1,.06,1.19c-.62,1.8-1.24,3.6-2,5.35-.69,1.58-1.62,2.69-3.54,2.37a2.81,2.81,0,0,1-1.44,0c-.62,0-1.26,0-1.88-.11s-1-.27-1.05-.9A2.1,2.1,0,0,1,29,169.68Z" transform="translate(-0.24 -6.23)"/><path class="cls-8" d="M150.18,155.5c-2.05.11-2.6-1.66-3.5-2.91a13.23,13.23,0,0,1-1.25-2.53c-.36-.8-.38-1.46.67-1.83a26.13,26.13,0,0,1,3.91-.92c.49-.18,1,.05,1.52-.17,1.68-.19,2.69.73,3.57,2a17.89,17.89,0,0,1,1.82,3.43,1.1,1.1,0,0,1-.79,1.63,28,28,0,0,1-4.21,1.09C151.35,155.53,150.74,155.25,150.18,155.5Z" transform="translate(-0.24 -6.23)"/><path class="cls-6" d="M179.37,151.94c2.09-.4,3.25.72,4.08,2.44.45.92.83,1.87,1.2,2.83s0,1.18-.74,1.41a42.54,42.54,0,0,1-4.87,1c-.42.18-.89,0-1.3.18-1.87.4-2.81-.63-3.47-2.2-.47-1.14-1.08-2.22-1.6-3.35-.24-.53-.16-.92.54-1.15,1.51-.5,3.09-.64,4.63-1C178.34,151.92,178.88,152.17,179.37,151.94Z" transform="translate(-0.24 -6.23)"/><path class="cls-2" d="M33.8,77c-1.86-.09-2.63-.67-3.28-2.58-.53-1.52-1-3.06-1.46-4.6s-.29-1.9,1.34-2.2c.58-.1,1.18-.17,1.76-.25a5,5,0,0,1,1.92,0A2.45,2.45,0,0,1,36.53,69a54.45,54.45,0,0,1,2.38,6.09,1.28,1.28,0,0,1-.07,1.19,6.31,6.31,0,0,1-2.84.53C35.28,77.07,34.51,76.75,33.8,77Z" transform="translate(-0.24 -6.23)"/><path class="cls-6" d="M51.6,98.2c-2.67-.28-3.71-1.26-4.47-4.53a13.08,13.08,0,0,1-.57-2.94c0-.86.2-1.26,1.12-1.23a7.93,7.93,0,0,0,1.52-.26,4.77,4.77,0,0,1,1.92,0c3.78.48,4.81,3.34,5.49,6.45.45,2,.25,2.24-1.89,2.51A13,13,0,0,1,51.6,98.2Z" transform="translate(-0.24 -6.23)"/><path class="cls-7" d="M162,93.64a15.13,15.13,0,0,1-4.32-.75c-.86-.31-1.14-.64-.73-1.63a20.05,20.05,0,0,1,2.2-4c.35-.5.7-1.07,1.41-1.18a6,6,0,0,1,2.15,0c1.95.32,4,.44,5.73,1.49a1.34,1.34,0,0,1,.06,1.19c-.59,1-1.14,2.12-1.78,3.14a3.37,3.37,0,0,1-1.85,1.69A9.86,9.86,0,0,1,162,93.64Z" transform="translate(-0.24 -6.23)"/><path class="cls-6" d="M103.24,185.65a2.5,2.5,0,0,1-.56,1.56A21.84,21.84,0,0,1,99,191.73c-.73.69-1.37.73-2-.06a10.82,10.82,0,0,1-2.35-4.53c-.28-1.2.51-2.06,1-2.95a18,18,0,0,1,3.16-3.77c.6-.59,1.08-.59,1.67.08A13.35,13.35,0,0,1,103.24,185.65Z" transform="translate(-0.24 -6.23)"/><path class="cls-6" d="M94.57,52.32a11,11,0,0,1,2.37-4.78c.35-.49,1.17-.42,1.75,0A14.13,14.13,0,0,1,103.13,53a1.46,1.46,0,0,1,0,1,12.9,12.9,0,0,1-2.79,4.87.94.94,0,0,1-1.52,0,19,19,0,0,1-4.13-5.58C94.56,53,94.7,52.7,94.57,52.32Z" transform="translate(-0.24 -6.23)"/><path class="cls-8" d="M46.71,161c-.91,0-1.83,0-2.74,0s-1.69-.78-1.46-1.55a20.36,20.36,0,0,1,1.91-5.26,4.68,4.68,0,0,1,3.34-2.3,7.43,7.43,0,0,1,2.4,0c2.71.76,2.86.06,1.8,3.55a13.64,13.64,0,0,1-2.27,4.5,2,2,0,0,1-1.21.9C47.9,161.06,47.28,160.78,46.71,161Z" transform="translate(-0.24 -6.23)"/><path class="cls-6" d="M162.89,153.1a.25.25,0,0,0-.12,0c-2.43.57-3.71-.78-4.61-2.76-.34-.75-.72-1.48-1.09-2.21-.57-1.11-.47-1.31.75-1.69a20.83,20.83,0,0,1,5.87-.79,2.15,2.15,0,0,1,1.18,0c2.06,1.2,2.95,3.21,3.59,5.35.19.63-.24,1-.87,1.17a19.35,19.35,0,0,1-3.43.78C163.75,153.11,163.29,152.89,162.89,153.1Z" transform="translate(-0.24 -6.23)"/><path class="cls-8" d="M47.28,87.16c-2.3.23-2.69-1.71-3.41-3.15a24.19,24.19,0,0,1-1.18-3.61,2.89,2.89,0,0,1,0-1.43c.82-.88,2-.4,2.93-.77a4.77,4.77,0,0,1,1.92,0,5,5,0,0,1,3.63,3.67,33.1,33.1,0,0,1,1.2,3.43c.31,1.48.3,1.55-1.23,1.86A19,19,0,0,1,47.28,87.16Z" transform="translate(-0.24 -6.23)"/><path class="cls-6" d="M92.43,49.65c-1,.13-1.46-.78-1.91-1.36-1-1.27-1.74-2.7-2.6-4-1-1.59-.19-3,.53-4.32A7.53,7.53,0,0,1,90,38.12c.59-.55,1-.55,1.49,0a18.85,18.85,0,0,1,4.21,5.69c.13.28.32.66.23.89-.65,1.68-1.14,3.47-2.58,4.72A1.08,1.08,0,0,1,92.43,49.65Z" transform="translate(-0.24 -6.23)"/><path class="cls-7" d="M147.36,93.56c.84.19,1.7.34,2.53.57,1.13.3,1.35.87,1.1,2a6.47,6.47,0,0,1-6.45,4.83,10,10,0,0,1-3.07-.5c-1.54-.59-2-1.51-1.21-3,.42-.8,1-1.5,1.48-2.27a4.29,4.29,0,0,1,3.57-1.89C146,93.62,146.69,93.35,147.36,93.56Z" transform="translate(-0.24 -6.23)"/><path class="cls-8" d="M97.41,70.32a9,9,0,0,1,1.79-4,1.43,1.43,0,0,1,2.26-.25,12.66,12.66,0,0,1,3.52,5,3,3,0,0,1-.11,2,8.86,8.86,0,0,1-2.22,4.14c-.51.5-1,.73-1.65.16a11.07,11.07,0,0,1-3.61-5.62A2.78,2.78,0,0,1,97.41,70.32Z" transform="translate(-0.24 -6.23)"/><path class="cls-8" d="M97.4,167.53a8.12,8.12,0,0,1,2.79-4.75c1.75-1.69,2-1.59,3.41.47a11.31,11.31,0,0,1,1.5,4.07,3.05,3.05,0,0,1-.61,2,10.7,10.7,0,0,1-3.31,4c-.83.6-1.39.48-1.88-.28-.81-1.27-1.83-2.45-1.9-4.07A2.89,2.89,0,0,1,97.4,167.53Z" transform="translate(-0.24 -6.23)"/><path class="cls-6" d="M41.91,172.06c-.8,0-1.59,0-2.39-.06-1-.07-1.42-.87-1.23-1.88.35-1.86,1.33-3.47,1.94-5.22a2.57,2.57,0,0,1,2-1.67,11.09,11.09,0,0,1,4.73,0c.65.13,1.11.36.89,1.29a20.52,20.52,0,0,1-3,6.51,1.77,1.77,0,0,1-1.38.85C42.94,172.07,42.4,171.84,41.91,172.06Z" transform="translate(-0.24 -6.23)"/><path class="cls-6" d="M146.63,138.43c2.33.76,3.54,2.5,4.37,4.69.45,1.17-.07,1.67-1,2a22.07,22.07,0,0,1-2.43.59,10.61,10.61,0,0,1-2.87,0c-1.55.05-2.38-1-3.19-2.09a14.94,14.94,0,0,1-1.25-2.12c-.79-1.48-.41-2.33,1.24-2.73.58-.14,1.17-.24,1.76-.35A14.92,14.92,0,0,1,146.63,138.43Z" transform="translate(-0.24 -6.23)"/><path class="cls-8" d="M87.57,195.84a21.46,21.46,0,0,1,3.82-5.74,1.27,1.27,0,0,1,2.12.07,16.72,16.72,0,0,1,2.29,4,1.89,1.89,0,0,1-.08,1.42,28.28,28.28,0,0,1-4,5.4c-.63.66-1.1.78-1.84,0a7.41,7.41,0,0,1-2.26-4A1.71,1.71,0,0,1,87.57,195.84Z" transform="translate(-0.24 -6.23)"/><path class="cls-7" d="M172.33,94.85c-.91-.17-1.82-.21-2.72-.44s-1-.56-.83-1.24a10.06,10.06,0,0,1,2.64-4.77c.67-.68,1.65-.35,2.47-.54.5.22,1.05,0,1.54.18l3.84.77c.76.16,1.15.63.93,1.38a9.88,9.88,0,0,1-2.38,4.18A2.11,2.11,0,0,1,176,95C174.81,94.76,173.55,95.06,172.33,94.85Z" transform="translate(-0.24 -6.23)"/><path class="cls-6" d="M43.21,76.37c-1.88-.22-2.79-1.43-3.44-3.09-.48-1.23-.92-2.48-1.36-3.72-.51-1.45-.24-1.82,1.28-2.15a14.13,14.13,0,0,1,3.79.06,2,2,0,0,1,1.61,1.11,25,25,0,0,1,2.41,5c.71,2.15.43,2.58-1.81,2.71-.43,0-.86,0-1.29.08A2.1,2.1,0,0,1,43.21,76.37Z" transform="translate(-0.24 -6.23)"/><path class="cls-8" d="M66,141.08c1.47.41,1.76.86,1.36,2.42a8,8,0,0,1-6.16,6.06,6.21,6.21,0,0,1-2.15,0c-.51-.13-1.11,0-1.48-.52a3.41,3.41,0,0,1,0-1.68,15,15,0,0,1,1.61-4.22c1-1.76,2.79-2,4.59-2.18.31,0,.63,0,.95-.06C65.12,141.11,65.59,140.89,66,141.08Z" transform="translate(-0.24 -6.23)"/><path class="cls-6" d="M57.54,90.49c.33-.83,1.19-.45,1.74-.76a4.6,4.6,0,0,1,1.92,0,7.72,7.72,0,0,1,5.73,4.87c1,2.8,1,3.67-2.54,3.78a6.94,6.94,0,0,1-6.83-5.73A7,7,0,0,1,57.54,90.49Z" transform="translate(-0.24 -6.23)"/><path class="cls-8" d="M174.09,144.26c4,.13,5.3,1.94,6.06,4.51.27.89,0,1.39-.92,1.68a25.67,25.67,0,0,1-5,.79,2.93,2.93,0,0,1-1.44,0,2.18,2.18,0,0,1-2.1-1.22,14,14,0,0,1-1.82-3.36c-.29-.9-.19-1.62,1-1.75.9-.1,1.79-.31,2.69-.48C173.06,144.25,173.6,144.48,174.09,144.26Z" transform="translate(-0.24 -6.23)"/><path class="cls-7" d="M156.69,102a11.71,11.71,0,0,1-3.21-.43c-1.66-.56-1.86-.88-1.14-2.45a7.08,7.08,0,0,1,10.1-3.18,1.44,1.44,0,0,1,.6,2C162,100.38,160.18,102.38,156.69,102Z" transform="translate(-0.24 -6.23)"/><path class="cls-8" d="M97.83,62.37A10,10,0,0,1,95.5,67.3a1,1,0,0,1-1.62,0c-1.9-1.91-3.57-4-3.56-6.81a6.32,6.32,0,0,1,2-4.2,1.08,1.08,0,0,1,1.29-.22C95,56.7,97.85,60.88,97.83,62.37Z" transform="translate(-0.24 -6.23)"/><path class="cls-6" d="M97.73,177.36a12.35,12.35,0,0,1-3.09,5c-1.18,1.35-1.93,1.29-3-.11a7.72,7.72,0,0,1-1.53-4.05,5.55,5.55,0,0,1,.95-2.6,11.73,11.73,0,0,1,2.78-3.65,1.06,1.06,0,0,1,1.73.15,10.1,10.1,0,0,1,2.15,4.08A2.19,2.19,0,0,1,97.73,177.36Z" transform="translate(-0.24 -6.23)"/><path class="cls-8" d="M55.2,160.8a6.59,6.59,0,0,1-1.81-.28c-.64-.28-1-.85-.78-1.36.76-1.65,1-3.52,2.17-5a6.38,6.38,0,0,1,6.77-1.75c.68.22.9.62.73,1.37A14.21,14.21,0,0,1,59.72,159C58.54,160.62,56.85,160.73,55.2,160.8Z" transform="translate(-0.24 -6.23)"/><path class="cls-8" d="M59.3,87.1c-3.52,0-4.74-1.42-6-4.66a5.5,5.5,0,0,1-.5-2c0-1.71.07-1.85,1.76-1.94,2.75-.15,5,.61,6.18,3.38a15.86,15.86,0,0,1,1.4,3.25c.27,1.34-.07,1.84-1.42,2C60.26,87.14,59.78,87.1,59.3,87.1Z" transform="translate(-0.24 -6.23)"/><path class="cls-8" d="M158.34,144.18c-3.91-.1-5.48-2.31-6.38-5.12-.24-.75.48-1.07,1-1.2a17.67,17.67,0,0,1,5.3-.44c2.23.13,3.32,1.45,4.3,3.07,1.22,2,.75,3.12-1.55,3.46A8.12,8.12,0,0,1,158.34,144.18Z" transform="translate(-0.24 -6.23)"/><path class="cls-7" d="M137.45,109.87a8.89,8.89,0,0,1-1.95,0c-1.54-.38-1.95-1.92-1-3.43a7.61,7.61,0,0,1,9.09-3,1.51,1.51,0,0,1,1,2.3,7.57,7.57,0,0,1-7.18,4.13Z" transform="translate(-0.24 -6.23)"/><path class="cls-6" d="M90.52,53.76a7.37,7.37,0,0,1-1.83,3.13,1.26,1.26,0,0,1-2,0,17.76,17.76,0,0,1-3.28-5.33c-.41-1,.62-4.27,1.49-5a1.81,1.81,0,0,1,2.78.42,15.71,15.71,0,0,1,2.88,5.1A3.67,3.67,0,0,1,90.52,53.76Z" transform="translate(-0.24 -6.23)"/><path class="cls-7" d="M172.08,96.44c.8.18,1.61.34,2.41.54a1,1,0,0,1,.86,1.5c-.62,1.7-1.41,3.23-3.25,4-.5.21-1,.12-1.46.29a2.77,2.77,0,0,1-1.43,0,21.82,21.82,0,0,1-3.41-.3c-1.36-.39-1.69-1.18-1.12-2.51a5.7,5.7,0,0,1,5.84-3.69C171,96.48,171.57,96.25,172.08,96.44Z" transform="translate(-0.24 -6.23)"/><path class="cls-8" d="M49.92,171.85l-.84-.06c-1.29-.11-1.61-.62-1.3-1.88a12.42,12.42,0,0,1,2.14-4.69c1.25-1.66,4.67-2.59,6.47-1.66.69.36.57.95.44,1.44a12.92,12.92,0,0,1-3.21,5.85C52.65,171.87,51.32,171.83,49.92,171.85Z" transform="translate(-0.24 -6.23)"/><path class="cls-6" d="M83.29,188.42a12.81,12.81,0,0,1,2.51-5l.08-.09c1.83-2,2.56-1.92,3.89.5a5.1,5.1,0,0,1,.38,4.47,13.15,13.15,0,0,1-3.3,4.62,1.16,1.16,0,0,1-1.79-.08A7.08,7.08,0,0,1,83.29,188.42Z" transform="translate(-0.24 -6.23)"/><path class="cls-8" d="M99.58,157a8,8,0,0,1-3.33,6.3c-.84.66-2-.27-2.66-1.68-1.46-3.44-.31-6.26,1.88-8.88a1.51,1.51,0,0,1,2.59.1A6.94,6.94,0,0,1,99.58,157Z" transform="translate(-0.24 -6.23)"/><path class="cls-8" d="M70.82,148.72c-2.42.09-2.44-.87-1.89-2.76,1.21-4.16,3.84-5.8,8.13-5.33.91.1,1.35.56,1.16,1.43A8.18,8.18,0,0,1,72,148.77,4,4,0,0,1,70.82,148.72Z" transform="translate(-0.24 -6.23)"/><path class="cls-8" d="M51.36,67.41c3.41,1.18,4.68,4,5.5,7.18a.83.83,0,0,1-.56,1.14c-2,.6-4,.65-5.57-.72-1.85-1.6-2.54-4-3.16-6.28-.28-1,1-1,1.63-1.32A5.61,5.61,0,0,1,51.36,67.41Z" transform="translate(-0.24 -6.23)"/><path class="cls-8" d="M76,98.86a6.82,6.82,0,0,1-6.37-3.69,8.72,8.72,0,0,1-1-2.32c-.34-1.45.08-2.09,1.58-2.24a7.28,7.28,0,0,1,6.11,2.57,6.7,6.7,0,0,1,1.74,3.17c.21.87.35,1.74-.6,2.32C77,98.9,76.5,98.62,76,98.86Z" transform="translate(-0.24 -6.23)"/><path class="cls-8" d="M169.2,142.84a5.27,5.27,0,0,1-4.71-4.29c-.17-.81-.22-1.49,1-1.55a14.76,14.76,0,0,0,2.32-.49,3.92,3.92,0,0,1,1.67,0c2.14.3,4.25.69,5.36,2.9a9.22,9.22,0,0,1,.56,1.43,1,1,0,0,1-.83,1.44c-.89.2-1.8.37-2.69.55A9.34,9.34,0,0,1,169.2,142.84Z" transform="translate(-0.24 -6.23)"/><path class="cls-8" d="M93.08,79.68a5.72,5.72,0,0,1,1.31-3.27,1.31,1.31,0,0,1,2-.28c3.41,2.59,4.59,7.58,1.07,11a1.77,1.77,0,0,1-1.2,0,8.47,8.47,0,0,1-3.17-5.57A5.11,5.11,0,0,1,93.08,79.68Z" transform="translate(-0.24 -6.23)"/><path class="cls-8" d="M139.68,136.12c-3-.26-4.73-2-5.68-4.66a1.16,1.16,0,0,1,.71-1.53,8.05,8.05,0,0,1,9.69,3.1c.94,1.69.41,2.76-1.84,3.09A10.29,10.29,0,0,1,139.68,136.12Z" transform="translate(-0.24 -6.23)"/><path class="cls-8" d="M150.35,128.9c2.19.08,4.26.48,5.83,2.2.73.81,1.54,1.66,1.19,2.82s-1.44,1.23-2.35,1.31c-2.11.19-4.22.27-6.05-1.14a6.71,6.71,0,0,1-2.28-3.21c-.26-.77.3-1.23,1-1.49a7.35,7.35,0,0,1,1.14-.3C149.3,128.88,149.85,129.12,150.35,128.9Z" transform="translate(-0.24 -6.23)"/><path class="cls-8" d="M86.13,168.72a9.68,9.68,0,0,1,2.56-5.24c.81-.92,1.54-.92,2.4,0A5.67,5.67,0,0,1,92.3,169,8.7,8.7,0,0,1,90,173.07c-1.22,1.24-2.18,1-3.11-.41a6.62,6.62,0,0,1-.78-2.74A1.9,1.9,0,0,1,86.13,168.72Z" transform="translate(-0.24 -6.23)"/><path class="cls-8" d="M70,87.53c-3.89.13-7-4.35-6.85-6.75a1.43,1.43,0,0,1,1.5-1.56,6.3,6.3,0,0,1,5.62,2.53A8.88,8.88,0,0,1,72,84.84C72.65,86.82,72.12,87.53,70,87.53Z" transform="translate(-0.24 -6.23)"/><path class="cls-8" d="M70.09,151.72c2.06,0,2.57.83,1.81,2.8a9.1,9.1,0,0,1-3.38,4.6,9.24,9.24,0,0,1-3.45,1.14,1.65,1.65,0,0,1-1.89-2.06C63.68,155.11,66.28,151.76,70.09,151.72Z" transform="translate(-0.24 -6.23)"/><path class="cls-7" d="M155,103.89a4.69,4.69,0,0,1,2.37,1.24,1.32,1.32,0,0,1,.05,1.19,6.5,6.5,0,0,1-5.3,3.88,14.52,14.52,0,0,1-3.36,0c-.39-.16-.86,0-1.23-.3-.61-.51-1-.91-.68-1.94,1-2.9,3.46-3.52,6-4.08A6,6,0,0,1,155,103.89Z" transform="translate(-0.24 -6.23)"/><path class="cls-8" d="M89.53,76.35a5.88,5.88,0,0,1-2.77-3.52,7.16,7.16,0,0,1,.18-6.3c.67-1.25,1.52-1.47,2.66-.57,2.8,2.22,4.29,7.18,1.11,10.32C90.33,76.58,89.93,76.44,89.53,76.35Z" transform="translate(-0.24 -6.23)"/><path class="cls-7" d="M167.52,104.6l.23.06c3.42.76,2.68,2.42,1,4.19a5.56,5.56,0,0,1-4.13,1.73c-1.33,0-2.68.27-4-.25a1.63,1.63,0,0,1-.77-2.49,6.93,6.93,0,0,1,5.25-3.14l.71-.11A3.92,3.92,0,0,1,167.52,104.6Z" transform="translate(-0.24 -6.23)"/><path class="cls-8" d="M85.65,177.8a8.92,8.92,0,0,1-3,6.23,1.37,1.37,0,0,1-2.37-.32c-1.39-2.08-1.1-4.23-.17-6.35a9.72,9.72,0,0,1,2.17-3.19,1.21,1.21,0,0,1,1.88,0A5.19,5.19,0,0,1,85.65,177.8Z" transform="translate(-0.24 -6.23)"/><path class="cls-8" d="M65,163.16c1.35.56,1.47.81,1,2.13a10.38,10.38,0,0,1-3.33,5,5.74,5.74,0,0,1-4.18,1.06,1.56,1.56,0,0,1-1.05-2.21c.77-1.78,1.47-3.62,3.09-4.87a9.13,9.13,0,0,1,2.59-1.06A4.6,4.6,0,0,1,65,163.16Z" transform="translate(-0.24 -6.23)"/><path class="cls-8" d="M85.47,62.88a15.7,15.7,0,0,1-.94,1.88,1.38,1.38,0,0,1-2.37.23,9.79,9.79,0,0,1-2.86-6.3,4.24,4.24,0,0,1,.84-2.92c1-1.19,1.62-1.34,2.77-.34A9.24,9.24,0,0,1,85.47,60c.19.43,0,.91.19,1.33a1.66,1.66,0,0,0-.06.16s0,0,.06.06C85.46,62,85.67,62.45,85.47,62.88Z" transform="translate(-0.24 -6.23)"/><path class="cls-6" d="M166,134.59c-2.55,0-4.55-.76-5.87-2.92a3.38,3.38,0,0,1-.47-1.79.73.73,0,0,1,.46-.75c2.67-1.32,7.49-.28,9.3,2.06a3.92,3.92,0,0,1,.44.7,1.54,1.54,0,0,1-1.16,2.42A7.32,7.32,0,0,1,166,134.59Z" transform="translate(-0.24 -6.23)"/><path class="cls-8" d="M57.58,68.64c1.25-1.24,2.69-.8,4-.22,2.69,1.23,4,3.61,4.64,6.37.16.71-.31,1.28-1.15,1.34a3.92,3.92,0,0,1-1.67,0,7.51,7.51,0,0,1-5.81-5.81A3.63,3.63,0,0,1,57.58,68.64Z" transform="translate(-0.24 -6.23)"/><path class="cls-10" d="M130,114.73c.53-1.44,1.81-1.82,3.1-2.16.42-.12.85-.2,1.28-.3a2.89,2.89,0,0,1,1.43,0c.53.13,1.08.21,1.6.39,1.84.61,2.06,1.7.65,3s-5.77,1.91-7.5.83a2.56,2.56,0,0,1-.53-.6A1.87,1.87,0,0,1,130,114.73Z" transform="translate(-0.24 -6.23)"/><path class="cls-8" d="M94.36,92.4C93.87,94.24,92.63,95,91.54,94a8.75,8.75,0,0,1-1.62-2.14,8.87,8.87,0,0,1-1-3.53,2.36,2.36,0,0,1,.89-2.51c.94-.52,1.73,0,2.42.72a8.66,8.66,0,0,1,2.17,4.64A2,2,0,0,1,94.36,92.4Z" transform="translate(-0.24 -6.23)"/><path class="cls-8" d="M89,150.49a7.69,7.69,0,0,1,2.29-5,1.64,1.64,0,0,1,2.88.66c.72,2-.84,6.19-2.69,7.19A1.58,1.58,0,0,1,89,152.4,4.73,4.73,0,0,1,89,150.49Z" transform="translate(-0.24 -6.23)"/><path class="cls-8" d="M86.45,142.79a8.39,8.39,0,0,1-4.62,5.34,2.36,2.36,0,0,1-1.18,0c-1.38-.48-1.09-1.78-.85-2.56a6.9,6.9,0,0,1,4.45-5,3.1,3.1,0,0,1,1.42,0l.75.78A2.58,2.58,0,0,1,86.45,142.79Z" transform="translate(-0.24 -6.23)"/><path class="cls-8" d="M84.24,98.67a4.93,4.93,0,0,1-2.91-2.15,5.52,5.52,0,0,1-1.6-4,1.73,1.73,0,0,1,.67-1.38,2.89,2.89,0,0,1,1.43,0,8.33,8.33,0,0,1,4.61,5.33,2.1,2.1,0,0,1,0,1.19,1.89,1.89,0,0,1-.78,1A2.77,2.77,0,0,1,84.24,98.67Z" transform="translate(-0.24 -6.23)"/><path class="cls-11" d="M130.06,123.36c.81-1.2,2.15-1.11,3.3-1.13a7.43,7.43,0,0,1,4.27,1.1c.73.48,1.39,1,1.31,1.94s-.87,1-1.51,1.31a12.4,12.4,0,0,1-1.59.42,2,2,0,0,1-1.19,0,6.69,6.69,0,0,1-3.83-1.35,1.75,1.75,0,0,1-.79-1.1A1.87,1.87,0,0,1,130.06,123.36Z" transform="translate(-0.24 -6.23)"/><path class="cls-12" d="M145,117.63c-.75-.11-1.53-.2-1.94-1a2.49,2.49,0,0,1,0-1.43c.19-.79.89-1.11,1.49-1.38a9.08,9.08,0,0,1,5.81-.82,1.63,1.63,0,0,1,1.32,1.19A1.53,1.53,0,0,1,151,116a9.64,9.64,0,0,1-4.13,1.66A4.56,4.56,0,0,1,145,117.63Z" transform="translate(-0.24 -6.23)"/><path class="cls-8" d="M73.71,81.53c0-1.49.57-2,2-1.51a7.74,7.74,0,0,1,4.88,5,1.59,1.59,0,0,1-.42,1.86,1.69,1.69,0,0,1-1.84.19C75.75,86,73.74,83.68,73.71,81.53Z" transform="translate(-0.24 -6.23)"/><path class="cls-11" d="M82.27,161.05a7.41,7.41,0,0,1,1.33-3.8c.57-.86,1.09-1.82,2.39-1.42s1.36,1.61,1.3,2.54a8.11,8.11,0,0,1-2.16,5.48,1.62,1.62,0,0,1-1.7.62A1.43,1.43,0,0,1,82.27,163,5.51,5.51,0,0,1,82.27,161.05Z" transform="translate(-0.24 -6.23)"/><path class="cls-13" d="M146.64,121.63a10.71,10.71,0,0,1,4.06,1.52c.61.45,1.11,1,1,1.76s-.81,1.14-1.6,1.34a7.66,7.66,0,0,1-6-1.1,2,2,0,0,1-1.19-2.18c.19-1,1-1,1.64-1.21.15-.05.31-.08.47-.12A3.92,3.92,0,0,1,146.64,121.63Z" transform="translate(-0.24 -6.23)"/><path class="cls-13" d="M79.92,152.15a1.63,1.63,0,0,1,.61,2.09,8.23,8.23,0,0,1-3.65,4.54c-.91.57-2,1-2.87.2s-.44-1.93,0-2.76a7.14,7.14,0,0,1,4.73-4.1A1.74,1.74,0,0,1,79.92,152.15Z" transform="translate(-0.24 -6.23)"/><path class="cls-14" d="M82.28,76.56c.23-.63,0-1.51,1-1.71a1.94,1.94,0,0,1,1.19,0,7.25,7.25,0,0,1,2.64,7c-.13.7-.41,1.42-1.2,1.6a1.89,1.89,0,0,1-2-1A8.44,8.44,0,0,1,82.28,78,2.81,2.81,0,0,1,82.28,76.56Z" transform="translate(-0.24 -6.23)"/><path class="cls-12" d="M156.72,117.62c-.6-.05-.85-.47-1-1a1.68,1.68,0,0,1,0-1.19c.21-.83,1-1.08,1.61-1.4a7.6,7.6,0,0,1,5.27-.71c.72.17,1.53.37,1.74,1.25s-.48,1.31-1,1.75a6.64,6.64,0,0,1-4.23,1.43c-.35,0-.71,0-1.07.06C157.63,117.62,157.14,117.84,156.72,117.62Z" transform="translate(-0.24 -6.23)"/><path class="cls-15" d="M159.84,126a7.07,7.07,0,0,1-3.81-1.79,1.63,1.63,0,0,1-.43-1.63c.06-.57.65-.8,1.13-.9a8.41,8.41,0,0,1,6.2,1c.74.44,1.65.87,1.38,2a1.89,1.89,0,0,1-2.07,1.39A6.91,6.91,0,0,1,159.84,126Z" transform="translate(-0.24 -6.23)"/><path class="cls-13" d="M68.4,170.41c-1.32-.51-.85-1.77-.6-2.42.84-2.18,2.15-4.09,4.67-4.66,1.47-.34,2.27.51,1.82,1.93a8.17,8.17,0,0,1-4.69,5.17A1.61,1.61,0,0,1,68.4,170.41Z" transform="translate(-0.24 -6.23)"/><path class="cls-8" d="M69.6,68.85a8,8,0,0,1,4.58,5c.53,1.71-.22,2.51-2,2.13-2-.44-5-3.79-4.52-6.19.09-.49.17-.82.7-.9A1.83,1.83,0,0,1,69.6,68.85Z" transform="translate(-0.24 -6.23)"/><path class="cls-8" d="M75.8,171.84a6.88,6.88,0,0,1,1.89-4.38c1.26-1.24,2.23-1,2.76.72.08.26.15.52.23.79a2,2,0,0,1,0,1.19,8.44,8.44,0,0,1-2.25,4.49c-1.21,1.17-2.12.94-2.63-.65A6.27,6.27,0,0,1,75.8,171.84Z" transform="translate(-0.24 -6.23)"/><path class="cls-8" d="M80.68,70.32c-.39,2.06-1.36,2.82-2.51,1.94a5.19,5.19,0,0,1-1.75-2.34,7,7,0,0,1-.62-2.48,5.81,5.81,0,0,1,0-2.16c.21-.47.14-1.14.93-1.19a2,2,0,0,1,1.92.67,9.65,9.65,0,0,1,2,4.36A2,2,0,0,1,80.68,70.32Z" transform="translate(-0.24 -6.23)"/><path class="cls-16" d="M116.59,35.5l5-6.81.33.38-5,6.78Z" transform="translate(-0.24 -6.23)"/><path class="cls-16" d="M169.2,173.51a68.27,68.27,0,0,1,3.09,7.21l-.23.53L168.93,174Z" transform="translate(-0.24 -6.23)"/><path class="cls-16" d="M182.62,62.4c-.83,2.23-1.79,4.42-2.82,6.57l-.31-.34,2.9-6.74Z" transform="translate(-0.24 -6.23)"/><path class="cls-16" d="M17.77,137.33H32.63a1.38,1.38,0,0,1-.91.2h-13A1.48,1.48,0,0,1,17.77,137.33Z" transform="translate(-0.24 -6.23)"/><path class="cls-16" d="M112.77,217a61.63,61.63,0,0,1-3.84-5.09l.31-.33,3.76,5.13Z" transform="translate(-0.24 -6.23)"/><path class="cls-16" d="M108.94,27.35c1.23-1.74,2.44-3.49,3.82-5.12l.24.32-3.77,5.11Z" transform="translate(-0.24 -6.23)"/><path class="cls-16" d="M180.25,171.33a39.86,39.86,0,0,1,2.36,5.55l-.24.56q-1.16-2.81-2.33-5.61Z" transform="translate(-0.24 -6.23)"/><path class="cls-16" d="M116,141.37l-.08,7.42A23.68,23.68,0,0,1,116,141.37Z" transform="translate(-0.24 -6.23)"/><path class="cls-16" d="M19,149.48a15.48,15.48,0,0,1-3.17-.42c.42-.06.87.07,1.24-.23a19.11,19.11,0,0,1,3.19.43C19.8,149.32,19.34,149.19,19,149.48Z" transform="translate(-0.24 -6.23)"/><path class="cls-16" d="M118.57,206.4l-2-2.62.3-.53,1.94,2.87C118.93,206.39,118.8,206.44,118.57,206.4Z" transform="translate(-0.24 -6.23)"/><path class="cls-16" d="M104.85,25.76l-2.15-2.23.3-.33a12.35,12.35,0,0,1,2.08,2.25Z" transform="translate(-0.24 -6.23)"/><path class="cls-16" d="M102.2,216.22l2.17-2.21.21.3a14.26,14.26,0,0,1-2.06,2.26Z" transform="translate(-0.24 -6.23)"/><path class="cls-16" d="M115.7,77.4a39,39,0,0,1,.18,6.11C115.45,81.48,115.77,79.43,115.7,77.4Z" transform="translate(-0.24 -6.23)"/><path class="cls-16" d="M115.88,155.29a39.18,39.18,0,0,1-.18,5.83C115.77,159.17,115.45,157.22,115.88,155.29Z" transform="translate(-0.24 -6.23)"/><path class="cls-16" d="M121.65,210.8l-1.44-2.19c-.07-.26,0-.34.29-.3L122,210.2A.88.88,0,0,0,121.65,210.8Z" transform="translate(-0.24 -6.23)"/><path class="cls-16" d="M28.8,149.8a27.26,27.26,0,0,0,5-.07A11,11,0,0,1,28.8,149.8Z" transform="translate(-0.24 -6.23)"/><path class="cls-16" d="M40.56,151.64h-4.8A11.94,11.94,0,0,1,40.56,151.64Z" transform="translate(-0.24 -6.23)"/><path class="cls-16" d="M169,65.28l.89-2.14.35.13a8.49,8.49,0,0,1-1,2.32Z" transform="translate(-0.24 -6.23)"/><path class="cls-16" d="M21,101.78a23.05,23.05,0,0,1-4.39.18C18,101.55,19.49,101.84,21,101.78Z" transform="translate(-0.24 -6.23)"/><path class="cls-16" d="M34.55,102a23.75,23.75,0,0,1-4.38-.17A18.89,18.89,0,0,1,34.55,102Z" transform="translate(-0.24 -6.23)"/><path class="cls-16" d="M38.64,150.05h4.07A8.75,8.75,0,0,1,38.64,150.05Z" transform="translate(-0.24 -6.23)"/><path class="cls-16" d="M36.48,87.64h4.08A8.66,8.66,0,0,1,36.48,87.64Z" transform="translate(-0.24 -6.23)"/><path class="cls-16" d="M14.37,101.51a39.44,39.44,0,0,0,.07-4.07A7.41,7.41,0,0,1,14.37,101.51Z" transform="translate(-0.24 -6.23)"/><path class="cls-16" d="M47.28,87.16h3.84A7.8,7.8,0,0,1,47.28,87.16Z" transform="translate(-0.24 -6.23)"/><path class="cls-16" d="M172.05,59a2.85,2.85,0,0,1-.94,1.66,4,4,0,0,1,.72-1.93Z" transform="translate(-0.24 -6.23)"/><path class="cls-17" d="M173.26,182.4c-.16.76.4,1.4.44,2.28-.68-.41-.61-1.09-.95-1.52Z" transform="translate(-0.24 -6.23)"/><path class="cls-16" d="M172.33,94.85A19.08,19.08,0,0,1,176,95,13.51,13.51,0,0,1,172.33,94.85Z" transform="translate(-0.24 -6.23)"/><path class="cls-16" d="M146.63,138.43h-3.34A6.11,6.11,0,0,1,146.63,138.43Z" transform="translate(-0.24 -6.23)"/><path class="cls-16" d="M41.78,140.65c-1.1.45-2.25.06-3.37.19C39.51,140.43,40.66,140.73,41.78,140.65Z" transform="translate(-0.24 -6.23)"/><path class="cls-16" d="M148.8,110.2h3.36A6.09,6.09,0,0,1,148.8,110.2Z" transform="translate(-0.24 -6.23)"/><path class="cls-16" d="M115.64,94.33a17.46,17.46,0,0,1-.18,3.46C115.52,96.64,115.23,95.46,115.64,94.33Z" transform="translate(-0.24 -6.23)"/><path class="cls-16" d="M184.81,71.48a4.5,4.5,0,0,1-1.57-.41l.59-.24a5.14,5.14,0,0,1,1.72.44A1.09,1.09,0,0,0,184.81,71.48Z" transform="translate(-0.24 -6.23)"/><path class="cls-16" d="M11.28,80.36h-2c.21-.45.53-.42.83-.41Z" transform="translate(-0.24 -6.23)"/><path class="cls-16" d="M27.6,99.4h3.11A5.24,5.24,0,0,1,27.6,99.4Z" transform="translate(-0.24 -6.23)"/><path class="cls-16" d="M37.84,137.26a13.62,13.62,0,0,1,3.19-.17A10.05,10.05,0,0,1,37.84,137.26Z" transform="translate(-0.24 -6.23)"/><path class="cls-16" d="M51.6,98.2h3.12A5.19,5.19,0,0,1,51.6,98.2Z" transform="translate(-0.24 -6.23)"/><path class="cls-16" d="M114.75,218.52a6.47,6.47,0,0,1,.76,2l-1.09-1.39Z" transform="translate(-0.24 -6.23)"/><path class="cls-16" d="M115.88,88.33a12.51,12.51,0,0,1-.18,3.23A10.29,10.29,0,0,1,115.88,88.33Z" transform="translate(-0.24 -6.23)"/><path class="cls-16" d="M162,93.64h2.87A4.35,4.35,0,0,1,162,93.64Z" transform="translate(-0.24 -6.23)"/><path class="cls-16" d="M139.68,136.12h2.88A4.44,4.44,0,0,1,139.68,136.12Z" transform="translate(-0.24 -6.23)"/><path class="cls-16" d="M144.73,145.73l2.87,0A4.41,4.41,0,0,1,144.73,145.73Z" transform="translate(-0.24 -6.23)"/><path class="cls-16" d="M11.27,159.62l-2-.44a7.15,7.15,0,0,1,2.3,0Z" transform="translate(-0.24 -6.23)"/><path class="cls-16" d="M41.75,102.2a11,11,0,0,1-3-.18C39.77,102.08,40.78,101.79,41.75,102.2Z" transform="translate(-0.24 -6.23)"/><path class="cls-18" d="M12.25,148.54l-.94-.28,0-.15h2.09C13.14,148.53,12.57,148.17,12.25,148.54Z" transform="translate(-0.24 -6.23)"/><path class="cls-16" d="M38.41,98.45a15.59,15.59,0,0,1,2.73.17A7.39,7.39,0,0,1,38.41,98.45Z" transform="translate(-0.24 -6.23)"/><path class="cls-16" d="M167.53,85.48l2.63,0A3.57,3.57,0,0,1,167.53,85.48Z" transform="translate(-0.24 -6.23)"/><path class="cls-16" d="M169.2,142.84h2.64A3.81,3.81,0,0,1,169.2,142.84Z" transform="translate(-0.24 -6.23)"/><path class="cls-16" d="M139.42,40.68a8,8,0,0,1-.18-2.75A7.48,7.48,0,0,1,139.42,40.68Z" transform="translate(-0.24 -6.23)"/><path class="cls-16" d="M115.64,164.17a7.47,7.47,0,0,1-.18,2.49A6.15,6.15,0,0,1,115.64,164.17Z" transform="translate(-0.24 -6.23)"/><path class="cls-16" d="M159.84,126h2.4A3.12,3.12,0,0,1,159.84,126Z" transform="translate(-0.24 -6.23)"/><path class="cls-16" d="M50.16,151.88h-2.4A3.21,3.21,0,0,1,50.16,151.88Z" transform="translate(-0.24 -6.23)"/><path class="cls-16" d="M170.15,153.88a11.93,11.93,0,0,0-2.39-.08A2.71,2.71,0,0,1,170.15,153.88Z" transform="translate(-0.24 -6.23)"/><path class="cls-16" d="M162.72,86.12h-2.15A2.56,2.56,0,0,1,162.72,86.12Z" transform="translate(-0.24 -6.23)"/><path class="cls-16" d="M31.06,89.3a7.8,7.8,0,0,1-2.26.18A5.1,5.1,0,0,1,31.06,89.3Z" transform="translate(-0.24 -6.23)"/><path class="cls-16" d="M155,103.89h-2.15A2.6,2.6,0,0,1,155,103.89Z" transform="translate(-0.24 -6.23)"/><path class="cls-16" d="M59.05,149.56H61.2A2.6,2.6,0,0,1,59.05,149.56Z" transform="translate(-0.24 -6.23)"/><path class="cls-16" d="M33.8,77a5,5,0,0,1,2.2-.19A5,5,0,0,1,33.8,77Z" transform="translate(-0.24 -6.23)"/><path class="cls-16" d="M15.14,96.86a6.16,6.16,0,0,1,.18,2.26A5.1,5.1,0,0,1,15.14,96.86Z" transform="translate(-0.24 -6.23)"/><path class="cls-16" d="M115.4,168.73a6.39,6.39,0,0,1-.18,2.22A4.91,4.91,0,0,1,115.4,168.73Z" transform="translate(-0.24 -6.23)"/><path class="cls-16" d="M49.44,150H51.6A2.66,2.66,0,0,1,49.44,150Z" transform="translate(-0.24 -6.23)"/><path class="cls-16" d="M139,205.67a6,6,0,0,1,.18-2.26A5.08,5.08,0,0,1,139,205.67Z" transform="translate(-0.24 -6.23)"/><path class="cls-16" d="M57.54,90.49l0,2.15A2.68,2.68,0,0,1,57.54,90.49Z" transform="translate(-0.24 -6.23)"/><path class="cls-16" d="M75.81,65.28v2.16A2.62,2.62,0,0,1,75.81,65.28Z" transform="translate(-0.24 -6.23)"/><path class="cls-16" d="M138.94,211a3.92,3.92,0,0,1,0-2.3Z" transform="translate(-0.24 -6.23)"/><path class="cls-16" d="M51.36,67.41H49.2A2.55,2.55,0,0,1,51.36,67.41Z" transform="translate(-0.24 -6.23)"/><path class="cls-16" d="M75.8,171.84V174A2.62,2.62,0,0,1,75.8,171.84Z" transform="translate(-0.24 -6.23)"/><path class="cls-16" d="M29,150.68a7.16,7.16,0,0,1-2.26-.18A5.08,5.08,0,0,1,29,150.68Z" transform="translate(-0.24 -6.23)"/><path class="cls-16" d="M145,117.63h1.91A2.08,2.08,0,0,1,145,117.63Z" transform="translate(-0.24 -6.23)"/><path class="cls-16" d="M65,163.16H63.12A2.1,2.1,0,0,1,65,163.16Z" transform="translate(-0.24 -6.23)"/><path class="cls-16" d="M89,150.49l0,1.91A2.08,2.08,0,0,1,89,150.49Z" transform="translate(-0.24 -6.23)"/><path class="cls-16" d="M46.07,102.44a5.2,5.2,0,0,1-2-.18A4.12,4.12,0,0,1,46.07,102.44Z" transform="translate(-0.24 -6.23)"/><path class="cls-16" d="M12,91.16h-.82a2.17,2.17,0,0,1,1.53-.4Z" transform="translate(-0.24 -6.23)"/><path class="cls-16" d="M14.64,90l1.92,0A2,2,0,0,1,14.64,90Z" transform="translate(-0.24 -6.23)"/><path class="cls-16" d="M82.27,161.05V163A2.18,2.18,0,0,1,82.27,161.05Z" transform="translate(-0.24 -6.23)"/><path class="cls-16" d="M61.2,89.72H59.28A2.07,2.07,0,0,1,61.2,89.72Z" transform="translate(-0.24 -6.23)"/><path class="cls-16" d="M51.12,89.24H49.2A2.13,2.13,0,0,1,51.12,89.24Z" transform="translate(-0.24 -6.23)"/><path class="cls-16" d="M139.18,35.35a5.08,5.08,0,0,1-.18-2C139.37,34,139.15,34.69,139.18,35.35Z" transform="translate(-0.24 -6.23)"/><path class="cls-16" d="M43.6,137a5.15,5.15,0,0,1,2-.18C45,137.21,44.27,137,43.6,137Z" transform="translate(-0.24 -6.23)"/><path class="cls-16" d="M147.36,93.56a4.31,4.31,0,0,1-2.05-.18C146,93.42,146.7,93.19,147.36,93.56Z" transform="translate(-0.24 -6.23)"/><path class="cls-16" d="M112.54,33.42l-.78-.75.32-.25c.4,0,.59.38.81.66Z" transform="translate(-0.24 -6.23)"/><path class="cls-16" d="M47.52,78.2H45.6A2.13,2.13,0,0,1,47.52,78.2Z" transform="translate(-0.24 -6.23)"/><path class="cls-16" d="M93.08,79.68v1.91A2.14,2.14,0,0,1,93.08,79.68Z" transform="translate(-0.24 -6.23)"/><path class="cls-16" d="M34.08,67.4H32.16A2.16,2.16,0,0,1,34.08,67.4Z" transform="translate(-0.24 -6.23)"/><path class="cls-16" d="M14.84,91.21v1.91A2.11,2.11,0,0,1,14.84,91.21Z" transform="translate(-0.24 -6.23)"/><path class="cls-16" d="M29.21,88.54A4.13,4.13,0,0,1,31,88.36C30.4,88.71,29.79,88.52,29.21,88.54Z" transform="translate(-0.24 -6.23)"/><path class="cls-16" d="M146.64,121.63H145A1.71,1.71,0,0,1,146.64,121.63Z" transform="translate(-0.24 -6.23)"/><path class="cls-16" d="M169.44,136.52h-1.67A1.71,1.71,0,0,1,169.44,136.52Z" transform="translate(-0.24 -6.23)"/><path class="cls-16" d="M14.44,141.36a4.25,4.25,0,0,1,.18-1.81C14.59,140.15,14.8,140.78,14.44,141.36Z" transform="translate(-0.24 -6.23)"/><path class="cls-16" d="M30.24,139.88a4.24,4.24,0,0,1-1.77-.18C29.06,139.72,29.67,139.53,30.24,139.88Z" transform="translate(-0.24 -6.23)"/><path class="cls-16" d="M33.6,140.12a4.07,4.07,0,0,1-1.8-.18C32.4,140,33,139.77,33.6,140.12Z" transform="translate(-0.24 -6.23)"/><path class="cls-16" d="M44.16,140.84a4.19,4.19,0,0,1-1.76-.18C43,140.68,43.6,140.49,44.16,140.84Z" transform="translate(-0.24 -6.23)"/><path class="cls-16" d="M167.52,104.6h-1.67A1.71,1.71,0,0,1,167.52,104.6Z" transform="translate(-0.24 -6.23)"/><path class="cls-16" d="M15.08,143.28a4.17,4.17,0,0,1-.18,1.79C14.93,144.47,14.73,143.85,15.08,143.28Z" transform="translate(-0.24 -6.23)"/><path class="cls-16" d="M57.58,68.64l0,1.67A1.64,1.64,0,0,1,57.58,68.64Z" transform="translate(-0.24 -6.23)"/><path class="cls-16" d="M14,147.12a4.07,4.07,0,0,1,.18-1.8C14.11,145.92,14.31,146.55,14,147.12Z" transform="translate(-0.24 -6.23)"/><path class="cls-16" d="M57.57,147.36V149A1.61,1.61,0,0,1,57.57,147.36Z" transform="translate(-0.24 -6.23)"/><path class="cls-16" d="M150.18,155.5a4.1,4.1,0,0,1,1.74-.18A3.23,3.23,0,0,1,150.18,155.5Z" transform="translate(-0.24 -6.23)"/><path class="cls-16" d="M14.4,160H12.72A1.66,1.66,0,0,1,14.4,160Z" transform="translate(-0.24 -6.23)"/><path class="cls-16" d="M46.71,161l1.77-.19C47.92,161.2,47.3,161,46.71,161Z" transform="translate(-0.24 -6.23)"/><path class="cls-16" d="M23.28,171.4a4.45,4.45,0,0,1,1.81.18C24.48,171.55,23.85,171.76,23.28,171.4Z" transform="translate(-0.24 -6.23)"/><path class="cls-16" d="M139.24,201.35a4,4,0,0,1,.18-1.75C139.4,200.19,139.59,200.8,139.24,201.35Z" transform="translate(-0.24 -6.23)"/><path class="cls-16" d="M90.52,53.76V52.08A1.68,1.68,0,0,1,90.52,53.76Z" transform="translate(-0.24 -6.23)"/><path class="cls-16" d="M115.46,72.6a3.9,3.9,0,0,1,.18,1.79C115.29,73.82,115.49,73.2,115.46,72.6Z" transform="translate(-0.24 -6.23)"/><path class="cls-16" d="M63.36,76.12H65A1.71,1.71,0,0,1,63.36,76.12Z" transform="translate(-0.24 -6.23)"/><path class="cls-16" d="M166.56,77h-1.67A1.69,1.69,0,0,1,166.56,77Z" transform="translate(-0.24 -6.23)"/><path class="cls-16" d="M172.8,151.24h1.44A1.3,1.3,0,0,1,172.8,151.24Z" transform="translate(-0.24 -6.23)"/><path class="cls-16" d="M14.2,144.24a3,3,0,0,1,.18-1.51C14.37,143.24,14.52,143.77,14.2,144.24Z" transform="translate(-0.24 -6.23)"/><path class="cls-16" d="M21.12,149.32a3.14,3.14,0,0,1,1.55.18C22.15,149.48,21.61,149.65,21.12,149.32Z" transform="translate(-0.24 -6.23)"/><path class="cls-16" d="M81.83,91.15H80.4A1.3,1.3,0,0,1,81.83,91.15Z" transform="translate(-0.24 -6.23)"/><path class="cls-16" d="M95.72,195.59l.08-1.42A1.11,1.11,0,0,1,95.72,195.59Z" transform="translate(-0.24 -6.23)"/><path class="cls-16" d="M151.53,147.14a3.59,3.59,0,0,1-1.52.17C150.48,147,151,147.15,151.53,147.14Z" transform="translate(-0.24 -6.23)"/><path class="cls-16" d="M26.16,160.6a3.61,3.61,0,0,1,1.56.18C27.2,160.76,26.65,160.93,26.16,160.6Z" transform="translate(-0.24 -6.23)"/><path class="cls-16" d="M85.67,140.58l-1.42,0A1.33,1.33,0,0,1,85.67,140.58Z" transform="translate(-0.24 -6.23)"/><path class="cls-16" d="M169.21,102.76h1.43A1.3,1.3,0,0,1,169.21,102.76Z" transform="translate(-0.24 -6.23)"/><path class="cls-16" d="M23.79,151.68l-.08-1.42A1.07,1.07,0,0,1,23.79,151.68Z" transform="translate(-0.24 -6.23)"/><path class="cls-16" d="M15.31,140.17a3.07,3.07,0,0,1-.17,1.56C15.16,141.21,15,140.66,15.31,140.17Z" transform="translate(-0.24 -6.23)"/><path class="cls-16" d="M113.9,20.37l.78-.5c.22.35-.08.57-.17.82Z" transform="translate(-0.24 -6.23)"/><path class="cls-16" d="M135.84,112.28h-1.43A1.32,1.32,0,0,1,135.84,112.28Z" transform="translate(-0.24 -6.23)"/><path class="cls-16" d="M173.31,55.71l-.05.93-.51-.74.32-.44C173.29,55.42,173.42,55.45,173.31,55.71Z" transform="translate(-0.24 -6.23)"/><path class="cls-16" d="M76,98.86a3.73,3.73,0,0,1,1.49-.19C77.05,99,76.53,98.85,76,98.86Z" transform="translate(-0.24 -6.23)"/><path class="cls-16" d="M12.72,79.22l1.44,0A1.26,1.26,0,0,1,12.72,79.22Z" transform="translate(-0.24 -6.23)"/><path class="cls-16" d="M172.08,96.44a3.74,3.74,0,0,1-1.56-.18C171,96.28,171.59,96.11,172.08,96.44Z" transform="translate(-0.24 -6.23)"/><path class="cls-16" d="M150.35,128.9a3.7,3.7,0,0,1-1.55.19C149.29,128.75,149.83,128.92,150.35,128.9Z" transform="translate(-0.24 -6.23)"/><path class="cls-16" d="M42.67,79l0,1.43A1.3,1.3,0,0,1,42.67,79Z" transform="translate(-0.24 -6.23)"/><path class="cls-16" d="M26.31,88.78a3.32,3.32,0,0,1,1.53-.18A2.61,2.61,0,0,1,26.31,88.78Z" transform="translate(-0.24 -6.23)"/><path class="cls-16" d="M32.27,99.34a3.22,3.22,0,0,1,1.57-.18C33.35,99.49,32.8,99.32,32.27,99.34Z" transform="translate(-0.24 -6.23)"/><path class="cls-16" d="M179.37,151.94a3.32,3.32,0,0,1-1.53.19C178.32,151.79,178.86,152,179.37,151.94Z" transform="translate(-0.24 -6.23)"/><path class="cls-16" d="M84.24,98.67l1.43,0A1.3,1.3,0,0,1,84.24,98.67Z" transform="translate(-0.24 -6.23)"/><path class="cls-16" d="M20.18,79c-.45.34-1,.2-1.46.19C19.18,78.84,19.69,79,20.18,79Z" transform="translate(-0.24 -6.23)"/><path class="cls-16" d="M123.34,211.2c0,.2,0,.4,0,.6s.17.44-.11.48c-.13,0-.3-.21-.45-.32Z" transform="translate(-0.24 -6.23)"/><path class="cls-16" d="M14.38,96.07a3.22,3.22,0,0,1-.18-1.51C14.52,95,14.37,95.56,14.38,96.07Z" transform="translate(-0.24 -6.23)"/><path class="cls-16" d="M174.09,144.26a3.57,3.57,0,0,1-1.52.17C173,144.12,173.57,144.27,174.09,144.26Z" transform="translate(-0.24 -6.23)"/><path class="cls-16" d="M143,115.21l0,1.43A1.25,1.25,0,0,1,143,115.21Z" transform="translate(-0.24 -6.23)"/><path class="cls-16" d="M86.45,142.79l0-1.43A1.27,1.27,0,0,1,86.45,142.79Z" transform="translate(-0.24 -6.23)"/><path class="cls-16" d="M175.43,88a3.84,3.84,0,0,1-1.54-.18C174.41,87.88,175,87.72,175.43,88Z" transform="translate(-0.24 -6.23)"/><path class="cls-16" d="M82.28,76.56V78A1.3,1.3,0,0,1,82.28,76.56Z" transform="translate(-0.24 -6.23)"/><path class="cls-16" d="M97.4,167.53V169A1.28,1.28,0,0,1,97.4,167.53Z" transform="translate(-0.24 -6.23)"/><path class="cls-16" d="M7.68,170.2l1.43-.07A1.13,1.13,0,0,1,7.68,170.2Z" transform="translate(-0.24 -6.23)"/><path class="cls-16" d="M97.41,70.32l0,1.43A1.3,1.3,0,0,1,97.41,70.32Z" transform="translate(-0.24 -6.23)"/><path class="cls-16" d="M31.92,171.88h1.44A1.32,1.32,0,0,1,31.92,171.88Z" transform="translate(-0.24 -6.23)"/><path class="cls-16" d="M41.91,172.06a2.83,2.83,0,0,1,1.52-.17A2.63,2.63,0,0,1,41.91,172.06Z" transform="translate(-0.24 -6.23)"/><path class="cls-16" d="M130,114.73l0,1.19A1,1,0,0,1,130,114.73Z" transform="translate(-0.24 -6.23)"/><path class="cls-16" d="M13.49,150.72v-1.19A1,1,0,0,1,13.49,150.72Z" transform="translate(-0.24 -6.23)"/><path class="cls-16" d="M55,141.09a2.42,2.42,0,0,1-1.33-.19C54.08,140.91,54.55,140.78,55,141.09Z" transform="translate(-0.24 -6.23)"/><path class="cls-16" d="M23.28,150a2.76,2.76,0,0,1-1.27-.2C22.45,149.78,22.9,149.66,23.28,150Z" transform="translate(-0.24 -6.23)"/><path class="cls-16" d="M25.48,142.08a2.25,2.25,0,0,1,.18-1.26A1.91,1.91,0,0,1,25.48,142.08Z" transform="translate(-0.24 -6.23)"/><path class="cls-16" d="M157.46,106.32l-.05-1.19A.83.83,0,0,1,157.46,106.32Z" transform="translate(-0.24 -6.23)"/><path class="cls-16" d="M22.55,138.91a2.33,2.33,0,0,1-1.25-.17A1.92,1.92,0,0,1,22.55,138.91Z" transform="translate(-0.24 -6.23)"/><path class="cls-16" d="M31.68,150.93a2.56,2.56,0,0,1-1.31-.19C30.82,150.74,31.28,150.62,31.68,150.93Z" transform="translate(-0.24 -6.23)"/><path class="cls-16" d="M20.4,138.68a2.17,2.17,0,0,1-1.26-.18A1.91,1.91,0,0,1,20.4,138.68Z" transform="translate(-0.24 -6.23)"/><path class="cls-16" d="M14.62,139.29,14.43,138C14.74,138.39,14.62,138.85,14.62,139.29Z" transform="translate(-0.24 -6.23)"/><path class="cls-16" d="M47.21,136.78a2.7,2.7,0,0,1,1.26-.17A2,2,0,0,1,47.21,136.78Z" transform="translate(-0.24 -6.23)"/><path class="cls-16" d="M134.65,127h1.19A1,1,0,0,1,134.65,127Z" transform="translate(-0.24 -6.23)"/><path class="cls-16" d="M130.06,123.36l0,1.19A1,1,0,0,1,130.06,123.36Z" transform="translate(-0.24 -6.23)"/><path class="cls-16" d="M79.92,152.15l-1.19,0A.92.92,0,0,1,79.92,152.15Z" transform="translate(-0.24 -6.23)"/><path class="cls-16" d="M156.72,117.62a3,3,0,0,1,1.33.2C157.6,117.81,157.13,118,156.72,117.62Z" transform="translate(-0.24 -6.23)"/><path class="cls-16" d="M162.89,153.1a2.49,2.49,0,0,1,1.27-.17A2,2,0,0,1,162.89,153.1Z" transform="translate(-0.24 -6.23)"/><path class="cls-16" d="M155.75,115.44l0,1.19A.92.92,0,0,1,155.75,115.44Z" transform="translate(-0.24 -6.23)"/><path class="cls-16" d="M66,141.08a2.67,2.67,0,0,1-1.28-.18A2,2,0,0,1,66,141.08Z" transform="translate(-0.24 -6.23)"/><path class="cls-16" d="M164.87,145.63h-1.18A1,1,0,0,1,164.87,145.63Z" transform="translate(-0.24 -6.23)"/><path class="cls-16" d="M158,155.79a2.58,2.58,0,0,1-1.29.17A1.92,1.92,0,0,1,158,155.79Z" transform="translate(-0.24 -6.23)"/><path class="cls-16" d="M42.59,98.62a2.33,2.33,0,0,1,1.33-.18C43.51,98.74,43,98.61,42.59,98.62Z" transform="translate(-0.24 -6.23)"/><path class="cls-16" d="M168.51,88.8l-.06-1.19A.84.84,0,0,1,168.51,88.8Z" transform="translate(-0.24 -6.23)"/><path class="cls-16" d="M23.82,88.79l0-1.19A1,1,0,0,1,23.82,88.79Z" transform="translate(-0.24 -6.23)"/><path class="cls-16" d="M177.74,159.82a2.61,2.61,0,0,1,1.3-.18A2,2,0,0,1,177.74,159.82Z" transform="translate(-0.24 -6.23)"/><path class="cls-16" d="M96.24,87.16l1.2,0A1,1,0,0,1,96.24,87.16Z" transform="translate(-0.24 -6.23)"/><path class="cls-16" d="M156.48,83.31a2.5,2.5,0,0,1,1.27.19A1.87,1.87,0,0,1,156.48,83.31Z" transform="translate(-0.24 -6.23)"/><path class="cls-16" d="M16.32,160.28a2.15,2.15,0,0,1-1.25-.18C15.5,160.1,15.94,160,16.32,160.28Z" transform="translate(-0.24 -6.23)"/><path class="cls-16" d="M18.48,160.52a2.35,2.35,0,0,1-1.31-.18l1.33,0h0C18.49,160.37,18.49,160.45,18.48,160.52Z" transform="translate(-0.24 -6.23)"/><path class="cls-16" d="M25.66,98.52a2.3,2.3,0,0,1-.18-1.32C25.78,97.61,25.65,98.08,25.66,98.52Z" transform="translate(-0.24 -6.23)"/><path class="cls-16" d="M86.45,97.67V96.48A1,1,0,0,1,86.45,97.67Z" transform="translate(-0.24 -6.23)"/><path class="cls-16" d="M164.89,162.28h1.19A1,1,0,0,1,164.89,162.28Z" transform="translate(-0.24 -6.23)"/><path class="cls-16" d="M38.91,164.16,38.85,163A.84.84,0,0,1,38.91,164.16Z" transform="translate(-0.24 -6.23)"/><path class="cls-16" d="M17,78.94a2.26,2.26,0,0,1,1.26-.17A2,2,0,0,1,17,78.94Z" transform="translate(-0.24 -6.23)"/><path class="cls-16" d="M27.23,78.5a2.64,2.64,0,0,1-1.3.17A2.08,2.08,0,0,1,27.23,78.5Z" transform="translate(-0.24 -6.23)"/><path class="cls-16" d="M19.34,78.7a2.41,2.41,0,0,1,1.3-.19C20.24,78.82,19.78,78.7,19.34,78.7Z" transform="translate(-0.24 -6.23)"/><path class="cls-16" d="M115.22,69.75a2.25,2.25,0,0,1,.17,1.28A2,2,0,0,1,115.22,69.75Z" transform="translate(-0.24 -6.23)"/><path class="cls-16" d="M94.36,92.4V91.2A1,1,0,0,1,94.36,92.4Z" transform="translate(-0.24 -6.23)"/><path class="cls-16" d="M89.53,76.35a2.26,2.26,0,0,0,1.18-.07A.81.81,0,0,1,89.53,76.35Z" transform="translate(-0.24 -6.23)"/><path class="cls-16" d="M86.13,168.72v1.2A1,1,0,0,1,86.13,168.72Z" transform="translate(-0.24 -6.23)"/><path class="cls-16" d="M80.68,70.32v-1.2A1,1,0,0,1,80.68,70.32Z" transform="translate(-0.24 -6.23)"/><path class="cls-16" d="M69.6,68.85H68.4A1,1,0,0,1,69.6,68.85Z" transform="translate(-0.24 -6.23)"/><path class="cls-16" d="M13,68.66a2.18,2.18,0,0,1-1.26.18A1.9,1.9,0,0,1,13,68.66Z" transform="translate(-0.24 -6.23)"/><path class="cls-16" d="M24.85,67.7a2.42,2.42,0,0,1-1.33.18C23.93,67.58,24.4,67.71,24.85,67.7Z" transform="translate(-0.24 -6.23)"/><path class="cls-16" d="M167.3,68.16V67A.91.91,0,0,1,167.3,68.16Z" transform="translate(-0.24 -6.23)"/><path class="cls-16" d="M97.73,177.36v-1.19A1,1,0,0,1,97.73,177.36Z" transform="translate(-0.24 -6.23)"/><path class="cls-16" d="M38.84,76.31l.07-1.19A.83.83,0,0,1,38.84,76.31Z" transform="translate(-0.24 -6.23)"/><path class="cls-16" d="M85.47,62.88c.07-.44.13-.88.19-1.32C85.65,62,85.78,62.47,85.47,62.88Z" transform="translate(-0.24 -6.23)"/><path class="cls-16" d="M110.93,62.63l0-1.19A1,1,0,0,1,110.93,62.63Z" transform="translate(-0.24 -6.23)"/><path class="cls-16" d="M85.66,61.33A3,3,0,0,1,85.47,60C85.78,60.41,85.65,60.88,85.66,61.33Z" transform="translate(-0.24 -6.23)"/><path class="cls-16" d="M20,90a2.39,2.39,0,0,1-1.29.19V90Z" transform="translate(-0.24 -6.23)"/><path class="cls-19" d="M183.33,59.73l.38-.83a.65.65,0,0,1-.06.86Z" transform="translate(-0.24 -6.23)"/><path class="cls-16" d="M140.2,190.55a2.2,2.2,0,0,1,.18-1.24C140.38,189.73,140.49,190.17,140.2,190.55Z" transform="translate(-0.24 -6.23)"/><path class="cls-16" d="M22.42,89.78a2.29,2.29,0,0,1-1.29.17A2,2,0,0,1,22.42,89.78Z" transform="translate(-0.24 -6.23)"/><path class="cls-16" d="M80.68,170.16V169A1,1,0,0,1,80.68,170.16Z" transform="translate(-0.24 -6.23)"/><path class="cls-16" d="M139.72,195.35a2.24,2.24,0,0,1,.18-1.3C139.89,194.49,140,195,139.72,195.35Z" transform="translate(-0.24 -6.23)"/><path class="cls-16" d="M87.57,195.84V197A.92.92,0,0,1,87.57,195.84Z" transform="translate(-0.24 -6.23)"/><path class="cls-16" d="M17.44,90a2.26,2.26,0,0,1,1.28-.19V90Z" transform="translate(-0.24 -6.23)"/><path class="cls-16" d="M174,58h-1.19A1,1,0,0,1,174,58Z" transform="translate(-0.24 -6.23)"/><path class="cls-16" d="M139.49,198a2.33,2.33,0,0,1,.17-1.3A2,2,0,0,1,139.49,198Z" transform="translate(-0.24 -6.23)"/><path class="cls-16" d="M19.57,89.74a2.35,2.35,0,0,1,1.31-.18A2,2,0,0,1,19.57,89.74Z" transform="translate(-0.24 -6.23)"/><path class="cls-16" d="M29,169.68v1.19A1,1,0,0,1,29,169.68Z" transform="translate(-0.24 -6.23)"/><path class="cls-16" d="M84.47,74.84H83.28A1,1,0,0,1,84.47,74.84Z" transform="translate(-0.24 -6.23)"/><path class="cls-16" d="M91.9,203.52v1.2A.94.94,0,0,1,91.9,203.52Z" transform="translate(-0.24 -6.23)"/><path class="cls-16" d="M43.21,76.37H44.4A1,1,0,0,1,43.21,76.37Z" transform="translate(-0.24 -6.23)"/><path class="cls-16" d="M140.14,47.57a2.29,2.29,0,0,1-.18-1.24C140.25,46.71,140.14,47.15,140.14,47.57Z" transform="translate(-0.24 -6.23)"/><path class="cls-16" d="M139.9,45.43a2.19,2.19,0,0,1-.18-1.26C140,44.55,139.9,45,139.9,45.43Z" transform="translate(-0.24 -6.23)"/><path class="cls-16" d="M39.73,89.06a2.31,2.31,0,0,1-1.32.17C38.82,88.94,39.28,89.07,39.73,89.06Z" transform="translate(-0.24 -6.23)"/><path class="cls-16" d="M11.76,170.44a2.13,2.13,0,0,1,1.27.18A1.93,1.93,0,0,1,11.76,170.44Z" transform="translate(-0.24 -6.23)"/><path class="cls-16" d="M99.33,43.44v1.2A.94.94,0,0,1,99.33,43.44Z" transform="translate(-0.24 -6.23)"/><path class="cls-16" d="M139.66,43.29a2.26,2.26,0,0,1-.18-1.28A2,2,0,0,1,139.66,43.29Z" transform="translate(-0.24 -6.23)"/><path class="cls-16" d="M49,102.68a2.53,2.53,0,0,1-1.28-.18A2,2,0,0,1,49,102.68Z" transform="translate(-0.24 -6.23)"/><path class="cls-16" d="M155.28,73.89l-1.19,0A1,1,0,0,1,155.28,73.89Z" transform="translate(-0.24 -6.23)"/><path class="cls-16" d="M15.84,170.92a2.21,2.21,0,0,1,1.27.18A1.93,1.93,0,0,1,15.84,170.92Z" transform="translate(-0.24 -6.23)"/><path class="cls-16" d="M14.9,94.19a2.33,2.33,0,0,1,.18,1.33C14.78,95.11,14.91,94.64,14.9,94.19Z" transform="translate(-0.24 -6.23)"/><path class="cls-16" d="M25.4,146.88a2.41,2.41,0,0,1-.18,1.3C25.22,147.74,25.1,147.28,25.4,146.88Z" transform="translate(-0.24 -6.23)"/><path class="cls-16" d="M80.65,148.14h1.18A1,1,0,0,1,80.65,148.14Z" transform="translate(-0.24 -6.23)"/><path class="cls-16" d="M68.4,170.41l1.2,0A.92.92,0,0,1,68.4,170.41Z" transform="translate(-0.24 -6.23)"/><path class="cls-20" d="M173.31,55.71l-.24-.25c.11-.25.2-.5.54-.56A.79.79,0,0,1,173.31,55.71Z" transform="translate(-0.24 -6.23)"/><path class="cls-21" d="M120.5,208.31l-.29.3c-.23-.29-.78-.52-.22-1Z" transform="translate(-0.24 -6.23)"/><path class="cls-22" d="M118.57,206.4l.26-.28a1,1,0,0,1,.43,1A1.27,1.27,0,0,1,118.57,206.4Z" transform="translate(-0.24 -6.23)"/></svg>
